<svg height="955" viewBox="0 0 955 955" width="955" xmlns="http://www.w3.org/2000/svg" xmlns:xlink="http://www.w3.org/1999/xlink"><defs><path id="a" d="m477.5 955c263.715968 0 477.5-213.784032 477.5-477.5s-213.784032-477.5-477.5-477.5-477.5 213.784032-477.5 477.5 213.784032 477.5 477.5 477.5z"/><mask id="b" fill="#fff" height="955" width="955" x="0" y="0"><use xlink:href="#a"/></mask><linearGradient id="c" x1="50%" x2="50%" y1="0%" y2="100%"><stop offset="0" stop-color="#ebebeb"/><stop offset="1" stop-color="#f9f9f9"/></linearGradient><circle id="d" cx="258.5" cy="258.5" r="258.5"/><path id="e" d="m258.5 517c142.765608 0 258.5-115.734392 258.5-258.5s-115.734392-258.5-258.5-258.5-258.5 115.734392-258.5 258.5 115.734392 258.5 258.5 258.5z"/><mask id="f" fill="#fff" height="517" width="517" x="0" y="0"><use xlink:href="#e"/></mask><mask id="g" fill="#fff"><use fill="#fff" fill-rule="evenodd" xlink:href="#d"/></mask></defs><g fill="none" fill-rule="evenodd"><circle cx="477.5" cy="477.5" opacity=".1" r="451.5" stroke="#000" stroke-width="12"/><use mask="url(#b)" opacity=".1" stroke="#000" stroke-dasharray="6 6" stroke-width="24" xlink:href="#a"/><circle cx="477.922812" cy="476.922812" fill="#f9f9f9" r="436.422812" stroke="#c4c4c4" stroke-width="5"/><circle cx="477.922812" cy="476.922812" fill="url(#c)" opacity=".9" r="429.5" stroke="#f5c7e0"/><circle cx="477.922812" cy="476.922812" fill="#f9f9f9" opacity=".7" r="370" stroke="#fff" stroke-width="34"/><circle cx="477.922812" cy="476.922812" fill="#f9f9f9" opacity=".9" r="267" stroke="#7b7b7b" stroke-width="2"/><g transform="translate(219 219)"><use fill="#fff" xlink:href="#d"/><g mask="url(#g)" opacity=".05" stroke="#000" stroke-dasharray="10 10" stroke-width="24"><use mask="url(#f)" xlink:href="#e"/></g></g><circle cx="478" cy="477" opacity=".43" r="285.5" stroke="#000" stroke-width="29"/></g></svg>