<svg height="955" viewBox="0 0 955 955" width="955" xmlns="http://www.w3.org/2000/svg" xmlns:xlink="http://www.w3.org/1999/xlink"><defs><linearGradient id="a" x1="0%" x2="105.251878%" y1="0%" y2="96.369536%"><stop offset="0" stop-color="#de0083"/><stop offset=".493935752" stop-color="#3186f4"/><stop offset="1" stop-color="#1aa0ff"/></linearGradient><linearGradient id="b" x1="50%" x2="50%" y1="0%" y2="100%"><stop offset="0" stop-color="#ebebeb"/><stop offset="1" stop-color="#f9f9f9"/></linearGradient><path id="c" d="m477.5 955c263.715968 0 477.5-213.784032 477.5-477.5s-213.784032-477.5-477.5-477.5-477.5 213.784032-477.5 477.5 213.784032 477.5 477.5 477.5z"/><mask id="d" fill="#fff" height="955" width="955" x="0" y="0"><use xlink:href="#c"/></mask><path id="e" d="m477.5 736c142.765608 0 258.5-115.734392 258.5-258.5s-115.734392-258.5-258.5-258.5-258.5 115.734392-258.5 258.5 115.734392 258.5 258.5 258.5z"/><mask id="f" fill="#fff" height="517" width="517" x="0" y="0"><use xlink:href="#e"/></mask></defs><g fill="none" fill-rule="evenodd"><circle cx="477.5" cy="477.5" opacity=".1" r="451.5" stroke="url(#a)" stroke-width="12"/><circle cx="477.922812" cy="476.922812" fill="#f9f9f9" opacity=".3" r="436.422812" stroke="url(#a)" stroke-width="5"/><circle cx="477.922812" cy="476.922812" fill="url(#b)" opacity=".9" r="429.5" stroke="#f5c7e0"/><circle cx="477.922812" cy="476.922812" fill="#f9f9f9" opacity=".7" r="370" stroke="#fff" stroke-width="34"/><circle cx="477.922812" cy="476.922812" fill="#f9f9f9" opacity=".9" r="267" stroke="#f5c7e0" stroke-width="2"/><g stroke="url(#a)"><circle cx="478" cy="477" opacity=".43" r="285.5" stroke-width="29"/><use mask="url(#d)" opacity=".1" stroke-dasharray="6 6" stroke-width="24" xlink:href="#c"/><use mask="url(#f)" opacity=".05" stroke-dasharray="10 10" stroke-width="24" xlink:href="#e"/></g></g></svg>