<?xml version="1.0" standalone="no"?><!DOCTYPE svg PUBLIC "-//W3C//DTD SVG 1.1//EN" "http://www.w3.org/Graphics/SVG/1.1/DTD/svg11.dtd"><svg class="icon" width="200px" height="200.00px" viewBox="0 0 1024 1024" version="1.1" xmlns="http://www.w3.org/2000/svg"><path d="M512 32c265.104 0 480 214.896 480 480s-214.896 480-480 480S32 777.104 32 512 246.896 32 512 32z m232.608 192h-420.96c-30.432 0-55.344 23.136-55.344 51.408v72h-33.216c-6.24 0-11.088 4.512-11.088 10.32V419.36c0 5.76 4.848 10.32 11.04 10.32h33.264v41.136h-33.216c-6.24 0-11.088 4.512-11.088 10.272v61.728c0 5.76 4.848 10.272 11.04 10.272h33.264v41.136h-33.216c-6.24 0-11.088 4.512-11.088 10.32v61.68c0 5.76 4.848 10.32 11.04 10.32h33.264v72c0 28.272 24.96 51.408 55.392 51.408h420.96c30.528-0.096 55.248-23.04 55.344-51.408V275.36C800 247.136 775.04 224 744.608 224z m-221.52 324v72h-144v-72h144z m116.304-144v72H368v-72h271.392z" /></svg>