<?xml version="1.0" standalone="no"?><!DOCTYPE svg PUBLIC "-//W3C//DTD SVG 1.1//EN" "http://www.w3.org/Graphics/SVG/1.1/DTD/svg11.dtd"><svg class="icon" width="200px" height="200.00px" viewBox="0 0 1024 1024" version="1.1" xmlns="http://www.w3.org/2000/svg"><path d="M914.59985 214.76l-390-180a30 30 0 0 0-25.2 0l-390 180a30 30 0 0 0-17.4 27.3v510a30 30 0 0 0 17.4 27.3l390 180a30 30 0 0 0 25.2 0l390-180a30 30 0 0 0 17.4-27.3v-510a30 30 0 0 0-17.4-27.3zM511.99985 389.06l-318.3-147L511.99985 95.06l318.3 147-318.3 147z m360 343.8l-330 152.4v-444l330-152.4v444z" /></svg>