<?xml version="1.0" standalone="no"?><!DOCTYPE svg PUBLIC "-//W3C//DTD SVG 1.1//EN" "http://www.w3.org/Graphics/SVG/1.1/DTD/svg11.dtd"><svg class="icon" width="200px" height="200.00px" viewBox="0 0 1024 1024" version="1.1" xmlns="http://www.w3.org/2000/svg"><path d="M512 56.32252799a151.90629854 151.90629854 0 0 1 21.74824297 302.23843935v46.14770111a195.31993483 195.31993483 0 0 1 162.63543254 258.65910257l64.04339697 36.99272606a151.90629854 151.90629854 0 1 1-29.08050773 33.34730547l-53.89421773-31.11034334A195.15423312 195.15423312 0 0 1 512 794.10578015a194.94710781 194.94710781 0 0 1-152.85907911-73.73689954l-56.08975383 32.43595093a151.90629854 151.90629854 0 1 1-23.52952844-36.57847422l56.50400689-32.64307624a195.31993483 195.31993483 0 0 1 154.26753635-278.91603866v-46.10627508A151.90629854 151.90629854 0 0 1 512 56.32252799z" /></svg>