<?xml version="1.0" standalone="no"?><!DOCTYPE svg PUBLIC "-//W3C//DTD SVG 1.1//EN" "http://www.w3.org/Graphics/SVG/1.1/DTD/svg11.dtd"><svg class="icon" width="200px" height="200.00px" viewBox="0 0 1024 1024" version="1.1" xmlns="http://www.w3.org/2000/svg"><path d="M998.05597014 828.23674665v55.80806271C998.05597014 927.17122952 907.34025057 975.20239627 777.12143803 975.20239627c-126.15361803 0-215.19023343-45.07064446-220.66941068-87.04820461L556.18690591 884.0006216v-55.80806271l5.43498947 5.21405581 7.51177451 6.27454026 5.43498949 3.97682158 4.10938227 2.7837751 7.0699046 4.41869019 9.58855954 5.39080302 7.8652689 3.88844733 8.83738169 3.97682157 9.89786615 4.0651958 10.42811032 3.80007438c8.39551178 2.91633582 17.14451922 5.52336372 26.29120886 7.90945537l6.58384947 1.63491641 13.21188542 2.96052228 6.58384819 1.3256072c28.36799387 5.34661524 59.47557636 8.3513253 92.08551324 8.35132529 98.49261422 0 183.1547272-27.13076092 220.93453211-65.97105159zM401.97460322 47.27736319c124.34195443 0 224.46948375 101.36476357 229.81610029 230.52309036l0.22093367 10.82579247v107.0648745h50.85912963c24.30279805 0 44.62877583 17.58638915 50.06376531 40.82870146-114.0905926 6.7164102-190.93162186 38.04492635-230.65565107 93.94136201l-5.12568158 7.77689595V931.01549036H120.94587891c-25.98190093 0-47.76604532-20.98878007-50.54982041-47.4567374L70.13093706 877.81445557V448.9363418c0-27.21913388 20.06085505-49.97539106 45.37995238-52.93591338l5.47917595-0.3093079h50.85912962V288.62624602C171.84919501 154.29805121 274.18607009 47.27736319 401.97460322 47.27736319zM998.05597014 726.96035734v55.85224917c0 43.08223369-90.71571828 91.11340044-220.93453211 91.11340044l-11.48859609-0.08837295c-8.08620386-0.17674719-15.99566052-0.53024288-23.68418093-1.10467352l-13.38863263-1.10467224-9.10250313-0.9721115-14.93517478-2.03259856c-42.86129872-6.45128876-78.60850637-18.42593995-104.19272514-32.8750583l-5.74429738-3.40239093a151.82620975 151.82620975 0 0 1-7.68852171-5.03730732c-15.24448269-10.78160471-25.27491086-22.53532223-29.03079746-34.15647904l-0.61861711-2.20934574-0.79536432-4.06519453-0.26512144-4.06519581v-55.85224917l5.43498947 5.25824098 6.31872803 5.30242876 6.23035382 4.63962517 7.42340025 4.94893437 8.30713883 4.94893308 7.95364314 4.28612949 8.26295105 3.97682157 12.81420327 5.47917725 11.3118476 4.24194301 9.41181104 3.13726948 16.61427636 4.86056014 14.58167908 3.57913941 15.73053908 3.22564372 11.75371753 2.03259855 12.77001549 1.85585006 7.29083955 0.88373728a506.11682519 506.11682519 0 0 0 58.72439853 3.31401797l14.00724974-0.22093367 16.43752915-0.66280358 8.96994113-0.61861714c81.30390722-6.14197954 148.90987393-30.93083402 181.51981209-64.4686959z m0-101.32057711v55.94062344c0 39.01703786-74.49912409 82.14345932-185.40825942 89.87616748l-15.0677355 0.83955209-8.39551176 0.22093366-12.06302543 0.17674849c-122.08842221 0-209.44593603-42.24268289-219.87404636-82.98301011l-0.79536432-4.10938228-0.26512144-4.02100933v-55.94062344l5.43498947 5.25824229 6.31872803 5.30242876 6.23035382 4.63962518 7.42340025 4.99312084 8.30713883 4.9047466 7.95364314 4.28612948 8.13039033 3.93263511 12.99095047 5.56755018 9.98624039 3.75588662 11.88627824 3.97682157 10.56067105 3.18145725 11.00253967 2.87214934 12.10721191 2.82796158 10.60485753 2.16515797 13.21188542 2.29772 12.77001549 1.81166229 7.29083955 0.88373856a500.99114363 500.99114363 0 0 0 58.72439853 3.31401799l14.27237118-0.1767472c92.35063468-2.47446718 170.73820609-28.76567603 206.66216093-65.79430441z m-227.03232518-136.44916633L777.12143803 489.14642742c130.21881254 0 220.93453212 48.03116676 220.93453211 91.15758691 0 40.6077665-80.64110364 85.63422448-199.017827 90.62734534l-8.57225897 0.30930791c-4.4186902 0.08837424-8.8373817 0.17674719-13.34444614 0.17674848-126.15361803 0-215.19023343-45.07064446-220.66941068-87.04820591l-0.30930792-4.37450372 0.30930792-3.75588661 0.79536432-4.1093823 1.32560718-4.15357006c4.15356877-10.86997897 13.65375406-21.69577145 27.70519027-31.72619831 2.65121438-1.90003654 5.30242877-3.66751365 7.99783091-5.34661523a197.0736027 197.0736027 0 0 1 23.55162022-12.37233465 266.22611025 266.22611025 0 0 1 32.43318967-11.97465119l11.66534329-3.35820445c4.10938229-1.10467223 8.30713883-2.1209715 12.5932683-3.09308431l11.09091391-2.38609293 12.6374548-2.29771869 14.31655765-2.12097151 20.7678464-2.2977187 10.1629876-0.75117785 10.781606-0.61861712 16.79102355-0.44186862z m-347.66257951-325.30400446c-75.69217056 0-138.21664346 60.58024859-142.45858516 136.58172706l-0.22093496 8.21876457v96.32745626h285.31485378v-96.32745626c0-79.75736638-63.76170585-144.49118373-142.63533366-144.80049163z" /></svg>