<?xml version="1.0" standalone="no"?><!DOCTYPE svg PUBLIC "-//W3C//DTD SVG 1.1//EN" "http://www.w3.org/Graphics/SVG/1.1/DTD/svg11.dtd"><svg class="icon" width="200px" height="200.00px" viewBox="0 0 1024 1024" version="1.1" xmlns="http://www.w3.org/2000/svg"><path d="M512 32c265.104 0 480 214.896 480 480s-214.896 480-480 480S32 777.104 32 512 246.896 32 512 32z m55.344 289.056c-15.216-5.856-34.128 13.488-42.288 43.2l-81.744 298.272c-8.16 29.76-2.448 58.56 12.72 64.416 15.216 5.856 34.128-13.488 42.288-43.2l81.408-296.976 0.384-1.296c8.16-29.76 2.4-58.56-12.768-64.416z m111.504 16.368a25.872 25.872 0 0 0-40.896-0.192 38.928 38.928 0 0 0-0.192 48.48l93.504 110.88-93.504 109.92a38.784 38.784 0 0 0-6.432 37.488c4.56 12.912 15.216 21.216 26.976 20.976 7.728 0.048 15.12-3.6 20.544-10.08l112.704-133.968A37.536 37.536 0 0 0 800 496.736a37.536 37.536 0 0 0-8.448-24.144z m-333.696 0L232.448 472.64A37.536 37.536 0 0 0 224 496.736c0 9.12 3.024 17.76 8.448 24.192l112.704 133.92a26.736 26.736 0 0 0 20.544 10.176c11.76 0.192 22.416-8.16 26.976-21.024a38.784 38.784 0 0 0-6.432-37.44L292.736 496.544 386.24 385.76a38.928 38.928 0 0 0-0.192-48.48 25.872 25.872 0 0 0-40.896 0.144z" /></svg>