<?xml version="1.0" standalone="no"?><!DOCTYPE svg PUBLIC "-//W3C//DTD SVG 1.1//EN" "http://www.w3.org/Graphics/SVG/1.1/DTD/svg11.dtd"><svg class="icon" width="200px" height="200.00px" viewBox="0 0 1024 1024" version="1.1" xmlns="http://www.w3.org/2000/svg"><path d="M278.98311111 84.80236999a38.83614777 38.83614777 0 0 1 38.83614777 38.83614891v38.83614777h116.50844445a38.83614777 38.83614777 0 0 1 38.8361489 38.83614776v271.8530378h77.67229554v-116.50844444a77.67229667 77.67229667 0 0 1 77.67229668-77.67229668h271.85303665a77.67229667 77.67229667 0 0 1 77.67229668 77.67229668v310.68918442a77.67229667 77.67229667 0 0 1-77.67229668 77.67229668h-271.85303665a77.67229667 77.67229667 0 0 1-77.67229668-77.67229668v-116.50844444h-77.67229554v271.8530378a38.83614777 38.83614777 0 0 1-34.29231957 38.5642951L434.32770333 861.52533333h-116.50844445v38.83614777a38.83614777 38.83614777 0 0 1-38.83614777 38.83614891H123.6385189a38.83614777 38.83614777 0 0 1-38.83614891-38.83614891v-155.34459221a38.83614777 38.83614777 0 0 1 38.83614891-38.83614777h155.34459221a38.83614777 38.83614777 0 0 1 38.83614777 38.83614777v38.83614777h77.67229667v-233.01688889h-77.67229667v38.8361489a38.83614777 38.83614777 0 0 1-38.83614777 38.83614778H123.6385189a38.83614777 38.83614777 0 0 1-38.83614891-38.83614778v-155.34459334a38.83614777 38.83614777 0 0 1 38.83614891-38.83614778h155.34459221a38.83614777 38.83614777 0 0 1 38.83614777 38.83614778v38.8361489h77.67229667V240.14696334h-77.67229667v38.83614777a38.83614777 38.83614777 0 0 1-38.83614777 38.83614777H123.6385189a38.83614777 38.83614777 0 0 1-38.83614891-38.83614777V123.6385189a38.83614777 38.83614777 0 0 1 38.83614891-38.83614891h155.34459221z" /></svg>