<?xml version="1.0" standalone="no"?><!DOCTYPE svg PUBLIC "-//W3C//DTD SVG 1.1//EN" "http://www.w3.org/Graphics/SVG/1.1/DTD/svg11.dtd"><svg class="icon" width="200px" height="200.00px" viewBox="0 0 1024 1024" version="1.1" xmlns="http://www.w3.org/2000/svg"><path d="M874.45777067 44.05096334c12.73825621 0 23.30168889 9.16533134 25.47651356 21.24337266l0.42719687 4.66033778v880.26013355c0 12.73825621-9.16533134 23.30168889-21.24337265 25.47651356l-4.66033778 0.42719801H149.54222933a25.90371043 25.90371043 0 0 1-25.47651356-21.2433738L123.6385189 950.21480733V69.95467378c0-12.73825621 9.16533134-23.30168889 21.24337265-25.47651356l4.66033778-0.42719688h724.91554134z m-25.86487467 51.76858511H175.407104v828.53038421h673.185792V95.81954845zM512 691.33304377v77.67229668H253.07940067v-77.67229668H512z m258.92059933-155.34459221v77.67229668H253.07940067v-77.67229668h517.84119866z m0-310.68918556v233.01688888H253.07940067v-233.01688888h517.84119866z" /></svg>