<?xml version="1.0" standalone="no"?><!DOCTYPE svg PUBLIC "-//W3C//DTD SVG 1.1//EN" "http://www.w3.org/Graphics/SVG/1.1/DTD/svg11.dtd"><svg class="icon" width="200px" height="200.00px" viewBox="0 0 1024 1024" version="1.1" xmlns="http://www.w3.org/2000/svg"><path d="M925.48846933 45.96622222C954.499072 45.96622222 978.03377778 69.15140267 978.03377778 97.73480733v673.185792c0 28.58340466-23.53470578 51.7685851-52.54530845 51.76858624h-210.18123378v103.5760071c0 28.58340466-23.49587001 51.7685851-52.54530844 51.76858511H137.30884267A52.15694734 52.15694734 0 0 1 84.80236999 926.26519267V253.07940067C84.80236999 224.49599488 108.33707577 201.31081443 137.34767843 201.31081443h210.18123378V97.73480733c0-28.58340466 23.49587001-51.7685851 52.54530845-51.76858511h525.45308444z m0 51.76858511h-525.45308444V201.31081443h262.72654222c29.04943843 0 52.54530845 23.18518045 52.54530844 51.76858624v517.84119866h210.18123378V97.73480733z" /></svg>