<?xml version="1.0" standalone="no"?><!DOCTYPE svg PUBLIC "-//W3C//DTD SVG 1.1//EN" "http://www.w3.org/Graphics/SVG/1.1/DTD/svg11.dtd"><svg class="icon" width="200px" height="200.00px" viewBox="0 0 1024 1024" version="1.1" xmlns="http://www.w3.org/2000/svg"><path d="M512 992C246.848 992 32 777.152 32 512S246.848 32 512 32s480 214.848 480 480-214.848 480-480 480zM92.912 398.96A426.864 426.864 0 0 0 77.696 512c0 215.136 160.992 396.528 367.776 429.12 13.44-3.984 30.624-3.984 43.68-3.984-4.56-27.408-4.56-50.256-4.56-77.712 0 0-105.12-77.712-105.12-123.408 0-19.344 2.4-34.56 4.224-45.744 2.4-15.216 3.648-22.848-4.272-22.848-8.16 0-16.992 2.4-25.104 4.56-14.496 3.84-26.832 7.2-29.76-4.56-9.12-27.408-27.408-50.256-54.864-59.424-68.544 0-73.104-82.272-73.104-159.984 0-15.168-12.048-20.256-25.488-25.968a95.136 95.136 0 0 1-20.256-10.608c-2.256 2.256-3.408 3.408-3.408 4.56 0 1.152 1.152 2.304 3.408 4.56-13.728 22.896-45.696 22.896-63.984 4.608a448.8 448.8 0 0 1 6.048-26.208z m522.144 534.72c145.92-36.24 264.048-147.408 310.272-289.44a232.224 232.224 0 0 1-1.92 4.896c-36.576 54.864-91.392 64.032-77.712 27.456-13.68-27.456-31.968-50.304-54.864-73.152-41.136-36.576-77.664-105.12 50.304-201.12-22.848-59.472 45.744-114.288 73.152-41.184 0 4.608 4.56 4.608 4.56 4.608 6.144 18.384 12.288 36.816 17.04 52.416-40.032-177.84-190.944-316.416-374.736-337.632 56.256 26.016 54.432 87.696 1.152 79.488 0 22.848 0 50.256-4.608 77.712-2.736 27.648-23.904 33.552-43.2 38.928-12.624 3.552-24.48 6.864-29.904 15.936-13.728 22.848 27.408 45.696 73.104 36.576 7.44 0 6.816-4.032 6.144-8.448-0.576-3.744-1.152-7.776 3.024-9.84 18.24-4.608 41.136-4.608 59.424 0a982.32 982.32 0 0 1-63.984 118.848c-6.192 9.264-4.032 24.768-1.968 39.504 0.96 7.104 1.92 13.968 1.92 19.92 0 98.544-33.024 38.976-55.008-0.72-8.64-15.504-15.552-27.984-18.096-26.736-5.568 5.568-22.944 0.96-39.84-3.456-10.896-2.88-21.6-5.664-28.752-5.664-9.12 0-11.424 9.12-13.68 18.24-2.304 9.168-4.608 18.336-13.728 18.336-16.8 0-23.904-1.92-26.784-2.688-0.96-0.288-1.44-0.384-1.632-0.24-0.096 0.144 0 0.48 0.144 1.104a22.56 22.56 0 0 1 0.816 6.384c0 6.72 0.624 15.84 1.44 27.456 1.296 20.064 3.168 47.52 3.168 82.272 0 11.232 13.824 6.912 29.808 1.92 9.984-3.12 20.832-6.48 29.616-6.48 18.72 0 33.216 10.656 46.32 20.352 6.096 4.464 11.856 8.736 17.664 11.616 15.84 6.816 31.68 21.408 46.368 35.04 15.072 13.824 28.944 26.688 40.512 28.992 10.704 2.112 12.384 11.328 13.92 19.968 1.824 9.84 3.504 19.008 18.048 16.56 13.728-4.56 32.016 4.608 41.136 18.336 13.728 18.24 4.608 41.136-13.68 54.816-27.456 27.456-36.576 59.424-50.304 123.456 11.856-3.984 20.304-1.104 25.344 5.664z m331.2-425.568c-0.048 12.528-0.48 25.056-1.296 37.44a427.776 427.776 0 0 0 1.296-37.44z" /></svg>