<?xml version="1.0" standalone="no"?><!DOCTYPE svg PUBLIC "-//W3C//DTD SVG 1.1//EN" "http://www.w3.org/Graphics/SVG/1.1/DTD/svg11.dtd"><svg class="icon" width="200px" height="200.00px" viewBox="0 0 1024 1024" version="1.1" xmlns="http://www.w3.org/2000/svg"><path d="M583.18165334 78.91626667l3.05834666 2.51221333 216.56007147 213.53813333a21.33560853 21.33560853 0 0 1 2.54862187 27.48871147l-2.54862187 3.02193707-203.88977813 200.97706666 159.36170666 0.07281814c10.55857813 0 20.57102187 4.18702187 27.92561814 11.43239146l3.4224352 3.8957504 166.2793952 215.72266667c6.44437333 8.3740448 8.81095147 17.94958187 7.9007296 27.0518048l0.10922666 2.7670752v86.28906667c0 19.77002667-15.03687147 36.11761813-34.4428096 38.5206048l-4.95160853 0.29127146H93.2272352a39.21237333 39.21237333 0 0 1-39.06673706-33.96949333l-0.32768-4.84238293v-86.28906667c0-0.94663147 0.03640853-1.85685333 0.10922666-2.80348373-0.72817813-7.24536853 0.65536-14.81841813 4.5511104-21.84533334l3.38602667-5.17006293 166.24298667-215.72266667c6.4079648-8.26481813 15.83786667-13.6169248 26.14158293-15.00046186l5.2064704-0.32768 97.46659627-0.03640854-111.04711147-109.51793813a21.33560853 21.33560853 0 0 1-2.54862187-27.52512l2.54862187-2.98552853 309.40273813-305.03367147a22.1366048 22.1366048 0 0 1 27.88920854-2.51221333z m341.33333333 794.7696352v-53.77592854H93.2272352v53.77592854h831.28775147z m-166.24298667-308.34688h-198.79253333l-65.60881813 64.69859626h172.50531626c4.98801813 0 9.75758187 1.67480853 13.5805152 4.69674667l2.69425814 2.47580373 39.39441706 43.14453334a21.4812448 21.4812448 0 0 1-12.5974752 35.68071146l-3.67729813 0.32768H311.97184a21.59047147 21.59047147 0 0 1-18.4957152-33.13208853l2.2573504-2.87630293 39.3580096-43.14453334a21.99096853 21.99096853 0 0 1 12.5974752-6.8448704l3.64088854-0.29127146 110.6102048-0.03640854-65.64522667-64.7350048-136.8246048 0.07281814-141.26648853 183.1367104h781.26193813l-141.19367147-183.1367104z m-122.80718186-301.97532374l-143.81511147 141.8490304-65.60881813-64.6985952-26.57848854 26.2144 92.11448854 90.76736 0.07281813-0.07281813 0.07281813 0.07281813 170.28437334-167.9542048-26.54208-26.1779904z" /></svg>