<?xml version="1.0" standalone="no"?><!DOCTYPE svg PUBLIC "-//W3C//DTD SVG 1.1//EN" "http://www.w3.org/Graphics/SVG/1.1/DTD/svg11.dtd"><svg class="icon" width="200px" height="200.00px" viewBox="0 0 1024 1024" version="1.1" xmlns="http://www.w3.org/2000/svg"><path d="M905.216 60.01777813c24.13909333 0 43.69066667 19.5151648 43.69066667 43.58144v823.05934187c0 22.20942187-16.67527147 40.55950187-38.22933334 43.25376L905.216 970.24H118.784a43.69066667 43.69066667 0 0 1-43.32657813-38.12010667l-0.36408854-5.46133333V103.59921813C75.09333333 79.53294186 94.64490667 60.01777813 118.784 60.01777813h786.432z m0 426.05681707H118.784v440.5839648h786.432v-440.5475552z m-260.21432853 250.96647146v56.47018667h-160.81806294v84.7234848l-116.7997152-119.6396096a12.67029333 12.67029333 0 0 1 9.10222187-21.55406187h268.51555627z m-114.8700448-197.70026666l116.7997152 119.63960853a12.67029333 12.67029333 0 0 1-9.1386304 21.55406293H369.2771552v-56.47018666h160.85447147v-84.7234848z m-179.13173334-338.93034667H215.88650667v142.65002667h135.11338666v-33.31413334H272.17464853v-22.9376h73.9100448v-30.03733333h-73.9100448V233.68817813h78.8252448v-33.31413333z m81.7743648 0h-64.80782293l58.1814048 142.65002667h72.99982187l58.14499626-142.65002667h-62.14997333l-30.6562848 102.89152h-1.05585813l-30.65628374-102.89152z m206.80248854 0h-65.0262752v142.65002667h49.1155904v-82.64817814h1.05585813l43.14453333 80.93696h30.11015147l43.14453333-80.93696h1.09226667v82.64817814h49.07918187V200.41045333h-65.0262752L683.48586667 283.64117333h-1.09226667l-42.85326187-83.23072z" /></svg>