<?xml version="1.0" standalone="no"?><!DOCTYPE svg PUBLIC "-//W3C//DTD SVG 1.1//EN" "http://www.w3.org/Graphics/SVG/1.1/DTD/svg11.dtd"><svg class="icon" width="200px" height="200.00px" viewBox="0 0 1024 1024" version="1.1" xmlns="http://www.w3.org/2000/svg"><path d="M512 32c265.08799969 0 480 214.91200031 480 480 0 265.08799969-214.91200031 480-480 480-265.08799969 0-480-214.91200031-480-480C32 246.91200031 246.91200031 32 512 32z m0 288c-161.02399969 0-295.90399969 81.91999969-331.36000031 192C216.128 622.08000031 351.008 704 512 704c160.96000031 0 295.872-81.91999969 331.36000031-192C807.90399969 401.91999969 673.02399969 320 512 320z m0 48a144 144 0 1 1 0 288 144 144 0 0 1 0-288z" /></svg>