<?xml version="1.0" standalone="no"?><!DOCTYPE svg PUBLIC "-//W3C//DTD SVG 1.1//EN" "http://www.w3.org/Graphics/SVG/1.1/DTD/svg11.dtd"><svg class="icon" width="200px" height="200.00px" viewBox="0 0 1024 1024" version="1.1" xmlns="http://www.w3.org/2000/svg"><path d="M114.551467 192.7168C90.999467 174.353067 103.970133 136.533333 133.768533 136.533333H890.197333c29.7984 0 42.734933 37.819733 19.217067 56.183467l-293.137067 228.7616v36.625067a25.941333 25.941333 0 0 1 18.3296-7.543467h208.657067c14.404267 0 26.077867 11.707733 26.077867 26.180267V529.066667a26.112 26.112 0 0 1-26.077867 26.180266h-208.657067a25.941333 25.941333 0 0 1-18.3296-7.543466v67.413333a25.941333 25.941333 0 0 1 18.3296-7.543467h208.657067c14.404267 0 26.077867 11.707733 26.077867 26.180267V686.08a26.112 26.112 0 0 1-26.077867 26.180267h-208.657067a25.941333 25.941333 0 0 1-18.3296-7.5776v67.447466a25.941333 25.941333 0 0 1 18.3296-7.543466h208.657067c14.404267 0 26.077867 11.707733 26.077867 26.180266V843.093333a26.112 26.112 0 0 1-26.077867 26.180267h-208.657067a25.941333 25.941333 0 0 1-18.3296-7.543467v28.4672c0 17.339733-13.994667 31.402667-31.266133 31.402667h-146.090667a31.3344 31.3344 0 0 1-31.266133-31.402667V421.4784L114.551467 192.7168z" /></svg>