<?xml version="1.0" standalone="no"?><!DOCTYPE svg PUBLIC "-//W3C//DTD SVG 1.1//EN" "http://www.w3.org/Graphics/SVG/1.1/DTD/svg11.dtd"><svg class="icon" width="200px" height="200.00px" viewBox="0 0 1024 1024" version="1.1" xmlns="http://www.w3.org/2000/svg"><path d="M509.34878603 15.02157938C236.27370405 15.02157938 14.8973037 236.39797972 14.8973037 509.4730617c0 218.47663502 141.67426845 403.77166507 338.15410915 469.18209445 24.68943431 4.55677511 33.80298335-10.77055883 33.80298336-23.8195046 0-11.80618903-0.4971027-50.74589984-0.70422922-92.04684846-137.53174638 29.95043745-166.52940325-58.32671596-166.52940327-58.32671717-22.53532182-57.16681008-54.92984795-72.36986713-54.92984793-72.36986714-44.86351835-30.6960915 3.43829405-30.03328831 3.43829404-30.03328829 49.62741877 3.47971888 75.76673636 50.95302637 75.76673638 50.95302636 44.1178643 75.55960983 115.70065257 53.6870912 143.86980454 41.05239848 4.43249945-31.89742341 17.23289388-53.72851602 31.40032072-66.11465862-109.81827106-12.46899222-225.27037228-54.88842311-225.27037228-244.40882608 0-53.93564255 19.34558034-98.05350685 50.95302637-132.68499508-5.17815349-12.46899222-22.12106998-62.71779058 4.72247561-130.82085877 0 0 41.54949996-13.25607231 136.0404383 50.66304899a474.31882311 474.31882311 0 0 1 123.73714656-16.61151429c42.00517783 0.16570049 84.34175788 5.67525618 123.86142101 16.61151429 94.36666144-63.96054733 135.87473659-50.66305021 135.8747378-50.66304899 26.8435456 68.10306939 9.94205392 118.43471739 4.84675129 130.82085877 31.69029689 34.63148825 50.87017552 78.74935254 50.87017552 132.72641991 0 189.93465481-115.70065257 231.69128129-225.76747498 243.9531482 17.72999658 15.32733273 33.554432 45.40204586 33.554432 91.54974697 0 66.11465861-0.57995355 119.38749796-0.57995233 135.62618524 0 13.17322145 8.90642371 28.58340503 33.96868384 23.73665375 196.35556503-65.45185541 337.86413298-250.74688546 337.86413298-469.09924359C1003.84169316 236.27370405 782.46529161 14.8973037 509.39021085 14.8973037l-0.04142482 0.12427568z" /></svg>