<?xml version="1.0" standalone="no"?><!DOCTYPE svg PUBLIC "-//W3C//DTD SVG 1.1//EN" "http://www.w3.org/Graphics/SVG/1.1/DTD/svg11.dtd"><svg class="icon" width="200px" height="200.00px" viewBox="0 0 1024 1024" version="1.1" xmlns="http://www.w3.org/2000/svg"><path d="M513.91525888 639.65441934c204.66650112 0 378.65244445 131.49919801 442.26605511 314.45629156l4.34964935 13.12661731H67.29955555c59.72999623-189.75342023 237.09468445-327.62174578 446.61570333-327.62174578z m263.30908444-553.22093113v263.27024868a263.27024867 263.27024867 0 0 1-263.30908444 263.30908444 262.95955911 262.95955911 0 0 1-263.30908445-263.30908444 263.38675712 263.38675712 0 0 1 239.42485333-262.37701689l12.42756779-0.89323179h274.726912z m-165.55849956 349.60300601a26.29207267 26.29207267 0 0 0-37.12735686-0.77672334c-24.7774629 23.76772267-45.28294912 34.71951645-60.62322802 34.71951645s-35.84576512-10.95179378-60.58439112-34.71951645a26.29207267 26.29207267 0 0 0-36.4283062 37.90408135c33.63210467 32.27283911 65.63308999 49.36074467 97.01269732 49.36074354 31.37960733 0 63.38059378-17.08790557 97.01269845-49.32190777a26.25323577 26.25323577 0 0 0 0.77672334-37.16619378z" /></svg>