<?xml version="1.0" standalone="no"?><!DOCTYPE svg PUBLIC "-//W3C//DTD SVG 1.1//EN" "http://www.w3.org/Graphics/SVG/1.1/DTD/svg11.dtd"><svg class="icon" width="200px" height="200.00px" viewBox="0 0 1024 1024" version="1.1" xmlns="http://www.w3.org/2000/svg"><path d="M682.666667 416.5632c133.188267 0 244.394667 49.493333 250.88 121.5488l0.273066 6.621867v140.4928c0 75.639467-113.937067 128.2048-251.153066 128.2048-18.0224 0-35.669333-0.9216-52.701867-2.6624v-45.943467c16.759467 1.911467 34.440533 2.9696 52.701867 2.9696 111.172267 0 199.4752-39.0144 205.2096-78.472533l0.341333-4.096V620.202667c-45.6704 32.8704-121.173333 52.736-205.550933 52.736-18.056533 0-35.703467-0.9216-52.736-2.6624v-251.050667c17.066667-1.774933 34.7136-2.6624 52.736-2.6624zM331.434667 170.666667c133.154133 0 244.394667 49.527467 250.811733 121.582933l0.3072 6.587733v421.546667c0 75.605333-113.937067 128.170667-251.118933 128.170667-133.188267 0-244.394667-49.527467-250.88-121.582934l-0.273067-6.587733V298.154667C80.964267 222.9248 194.628267 170.666667 331.434667 170.666667z m205.550933 484.6592c-45.704533 32.8704-121.2416 52.736-205.550933 52.736s-159.8464-19.8656-205.550934-52.701867v65.024c0 40.7552 90.555733 82.5344 205.550934 82.5344 111.138133 0 199.441067-39.0144 205.2096-78.472533l0.273066-4.096 0.068267-65.024z m0-140.526934c-45.704533 32.8704-121.2416 52.736-205.550933 52.736s-159.8464-19.831467-205.550934-52.667733v64.989867c0 40.789333 90.555733 82.602667 205.550934 82.602666 111.138133 0 199.441067-39.082667 205.2096-78.506666l0.273066-4.096 0.068267-65.024zM139.605333 467.285333l4.7104 4.437334 6.997334 5.5296 6.656 4.539733 6.587733 3.959467 6.656 3.584 10.0352 4.778666 7.68 3.242667 9.454933 3.584 10.8544 3.652267 10.820267 3.1744 15.530667 3.8912 10.717866 2.286933 18.944 3.242667 11.3664 1.536 18.158934 1.809066 10.581333 0.682667c8.533333 0.512 17.2032 0.750933 26.077867 0.750933l12.6976-0.170666 15.018666-0.682667 13.960534-1.024 15.1552-1.6384 8.8064-1.194667 13.755733-2.2528 11.264-2.184533 11.3664-2.628267 9.693867-2.525866 9.6256-2.798934 12.151466-4.096 7.509334-2.798933 10.6496-4.5056 10.308266-5.051733 7.2704-4.027734 7.5776-4.778666 4.266667-3.072 3.959467-3.072c11.605333-9.5232 18.670933-19.729067 20.138666-30.0032l0.341334-4.096 0.034133-65.024c-45.704533 32.8704-121.2416 52.736-205.550933 52.736s-159.8464-19.8656-205.550934-52.701867v65.024c0 9.4208 4.846933 18.909867 13.7216 27.921067z" /></svg>