<?xml version="1.0" standalone="no"?><!DOCTYPE svg PUBLIC "-//W3C//DTD SVG 1.1//EN" "http://www.w3.org/Graphics/SVG/1.1/DTD/svg11.dtd"><svg class="icon" width="200px" height="200.00px" viewBox="0 0 1024 1024" version="1.1" xmlns="http://www.w3.org/2000/svg"><path d="M891.66218467 512c0 57.98236957 35.72925667 107.57612999 86.37159311 128.04278045a480.13129955 480.13129955 0 0 1-45.98199979 110.9160391 138.10134243 138.10134243 0 0 0-181.09295844 181.09295844c-34.87486066 19.88410823-72.15756288 35.34089443-110.9160391 45.98199979a138.10134243 138.10134243 0 0 0-256.0855609 0 480.20897223 480.20897223 0 0 1-110.9160391-45.98199979 138.10134243 138.10134243 0 0 0-181.09295844-181.09295844A480.32548067 480.32548067 0 0 1 45.96622222 640.04278045a138.10134243 138.10134243 0 0 0 0-256.0855609c10.64110421-38.75847623 26.09789155-76.04117845 45.98199979-110.9160391a138.10134243 138.10134243 0 0 0 181.09295844-181.09295844c34.87486066-19.88410823 72.15756288-35.34089443 110.9160391-45.98199979a138.10134243 138.10134243 0 0 0 256.0855609 0c38.75847623 10.64110421 76.04117845 26.09789155 110.9160391 45.98199979a138.10134243 138.10134243 0 0 0 181.09295844 181.09295844c19.88410823 34.87486066 35.34089443 72.15756288 45.98199979 110.9160391A138.10134243 138.10134243 0 0 0 891.66218467 512zM512 378.830848a133.169152 133.169152 0 1 0 0 266.338304 133.169152 133.169152 0 0 0 0-266.338304z" /></svg>