<?xml version="1.0" standalone="no"?><!DOCTYPE svg PUBLIC "-//W3C//DTD SVG 1.1//EN" "http://www.w3.org/Graphics/SVG/1.1/DTD/svg11.dtd"><svg class="icon" width="200px" height="200.00px" viewBox="0 0 1024 1024" version="1.1" xmlns="http://www.w3.org/2000/svg"><path d="M849.11005354 200.9612891C796.87543466 151.09567488 727.397566 123.6385189 653.53121223 123.6385189c-73.90518955 0-143.38305934 27.45715712-195.61767823 77.36160711-88.93477888 84.85698333-104.4692389 213.55997867-46.79755889 313.83491242l-77.94414933 74.41006024a57.86586112 57.86586112 0 0 0-4.194304-4.46615666l-55.30267535-52.81716224a60.04068466 60.04068466 0 0 0-41.71002311-16.46652644 60.04068466 60.04068466 0 0 0-41.71002311 16.46652644 54.56478777 54.56478777 0 0 0 0 79.61410446l55.34151111 52.8171611c1.47577401 1.4369371 3.02921955 2.71852999 4.66033778 4.00012288l-21.12686422 20.1947978-30.64172088-29.24361956a60.00184889 60.00184889 0 0 0-41.71002312-16.50536334c-15.72864 0-30.56404821 5.82542222-41.67118734 16.50536334a54.64246045 54.64246045 0 0 0-17.28208554 39.8070511c0 15.02958933 6.13611179 29.12711111 17.28208554 39.80705223l30.6805578 29.32129223a76.11884999 76.11884999 0 0 0 2.05831509 109.051904c15.57329579 14.83540821 36.27296199 23.02983623 58.25422223 23.02983509 22.020096 0 42.71976334-8.15559111 58.25422222-23.02983509l265.44507335-253.40586667c37.94291712 18.17531733 80.04130133 27.84551822 123.731968 27.84551823 73.86635378 0 143.30538667-27.49599289 195.57884131-77.36160712 107.88681955-102.95462912 107.88681955-270.49377223 0-373.44840135z m-124.39218176 254.68745956a104.08087666 104.08087666 0 0 1-142.37331911 0 93.05141134 93.05141134 0 0 1 0-135.92651776 104.08087666 104.08087666 0 0 1 142.37331911 0 93.05141134 93.05141134 0 0 1 0 135.92651776z" /></svg>