<?xml version="1.0" standalone="no"?><!DOCTYPE svg PUBLIC "-//W3C//DTD SVG 1.1//EN" "http://www.w3.org/Graphics/SVG/1.1/DTD/svg11.dtd"><svg class="icon" width="200px" height="200.00px" viewBox="0 0 1024 1024" version="1.1" xmlns="http://www.w3.org/2000/svg"><path d="M887.466667 306.244267h17.066666a17.066667 17.066667 0 0 0-7.918933-14.4384L887.466667 306.244267zM512 955.733333l-8.840533 14.609067a17.066667 17.066667 0 0 0 17.681066 0L512 955.733333z m375.466667-226.850133l8.840533 14.609067a17.066667 17.066667 0 0 0 8.226133-14.609067H887.466667zM136.533333 306.244267l-9.147733-14.4384a17.066667 17.066667 0 0 0-7.918933 14.4384H136.533333z m0 422.638933h-17.066666a17.066667 17.066667 0 0 0 8.226133 14.609067L136.533333 728.8832zM512 68.266667l9.147733-14.404267a17.066667 17.066667 0 0 0-18.295466 0L512 68.266667z m0 475.921066l-9.147733 14.4384a17.066667 17.066667 0 0 0 18.295466 0L512 544.187733z m366.626133-252.586666l-375.466666 226.884266 17.681066 29.218134 375.466667-226.850134-17.681067-29.218133zM494.933333 533.128533V955.733333h34.133334V533.0944h-34.133334z m25.9072 437.248l375.466667-226.850133-17.681067-29.218133-375.466666 226.850133 17.681066 29.218133zM904.533333 728.8832V306.244267h-34.133333v422.638933h34.133333zM127.6928 320.853333l375.466667 226.850134 17.681066-29.218134-375.466666-226.850133-17.681067 29.218133zM520.874667 941.124267l-375.466667-226.850134-17.681067 29.218134 375.466667 226.850133 17.681067-29.218133zM153.6 728.8832V306.244267h-34.133333v422.638933h34.133333zM502.852267 82.670933l375.466666 237.9776 18.295467-28.842666-375.466667-237.943467-18.295466 28.808533z m375.466666 209.134934l-375.466666 237.9776 18.295466 28.842666 375.466667-237.9776-18.295467-28.842666z m-357.1712 237.9776l-375.466666-237.9776-18.295467 28.842666 375.466667 237.9776 18.295466-28.842666z m-375.466666-209.134934l375.466666-237.9776-18.295466-28.808533-375.466667 237.943467 18.295467 28.842666z" /></svg>