<?xml version="1.0" standalone="no"?><!DOCTYPE svg PUBLIC "-//W3C//DTD SVG 1.1//EN" "http://www.w3.org/Graphics/SVG/1.1/DTD/svg11.dtd"><svg class="icon" width="200px" height="200.00px" viewBox="0 0 1024 1024" version="1.1" xmlns="http://www.w3.org/2000/svg"><path d="M530.45343459 98.58293874c-137.32963101 0-247.33615218 100.15967915-247.33615331 225.83846571v100.15967914H228.43347968c-29.9539456 0-54.6838016 22.55002169-54.68380274 49.79796423v401.24004921c0 27.28552562 24.72985714 49.79796423 54.68380274 49.79796423h604.07749291c30.59286243 0 55.32271957-22.55002169 55.32271957-49.79796423V474.4166309c0-27.28552562-24.72985714-49.79796423-55.32271957-49.79796423h-54.68380274v-100.15967915c0-125.67878656-109.93135502-225.83846571-247.37373526-225.83846457z m0 75.27948857c91.06450318 0.33824995 164.69032391 67.65006507 164.69032392 150.55897714v100.15967914H365.80069376v-100.15967914c0-82.98407936 74.22715449-150.55897714 164.69032391-150.55897714z" /></svg>