<?xml version="1.0" standalone="no"?><!DOCTYPE svg PUBLIC "-//W3C//DTD SVG 1.1//EN" "http://www.w3.org/Graphics/SVG/1.1/DTD/svg11.dtd"><svg class="icon" width="200px" height="200.00px" viewBox="0 0 1024 1024" version="1.1" xmlns="http://www.w3.org/2000/svg"><path d="M108.22056733 162.47466667h807.55886534C950.14942379 162.47466667 978.03377778 192.30082845 978.03377778 229.19516957v565.60966086c0 36.85550421-27.88435399 66.7205029-62.25434511 66.7205029H108.22056733C73.85057621 861.52533333 45.96622222 831.69917155 45.96622222 794.80483043V229.19516957C45.96622222 192.33966421 73.85057621 162.47466667 108.22056733 162.47466667z m420.32363178 411.00295623l278.37750955-172.19948089a25.86487467 25.86487467 0 0 0 8.54395335-34.09813846c-6.44680021-11.9226971-20.62199467-16.07816533-31.84564224-9.12649443l-270.4937711 167.30612622-270.49377222-167.30612622c-11.22364643-6.99050667-25.39884089-2.79620267-31.84564111 9.12649443-6.48563712 12.03920555-2.60202155 27.18530333 8.54395221 34.09813846l278.37750955 172.19948089a22.33078557 22.33078557 0 0 0 15.41795157 5.90309376 22.33078557 22.33078557 0 0 0 15.41795044-5.90309376z" /></svg>