<?xml version="1.0" standalone="no"?><!DOCTYPE svg PUBLIC "-//W3C//DTD SVG 1.1//EN" "http://www.w3.org/Graphics/SVG/1.1/DTD/svg11.dtd"><svg class="icon" width="200px" height="200.00px" viewBox="0 0 1024 1024" version="1.1" xmlns="http://www.w3.org/2000/svg"><path d="M857.460364 136.517818H166.586182a30.021818 30.021818 0 0 0-30.021818 30.021818v690.874182c0 16.616727 13.405091 30.021818 30.021818 30.021818h690.874182a30.021818 30.021818 0 0 0 30.021818-30.021818V166.539636a30.021818 30.021818 0 0 0-30.021818-30.021818z m-105.192728 193.070546l-38.260363 36.724363a11.124364 11.124364 0 0 0-4.328728 10.705455v270.056727a10.938182 10.938182 0 0 0 4.328728 10.705455l37.562182 36.677818v8.192h-188.509091v-7.819637l38.772363-37.608727c3.863273-3.863273 3.863273-4.980364 3.863273-10.705454V427.985455l-107.985455 273.687272h-14.522181l-125.579637-273.687272v183.482181a24.994909 24.994909 0 0 0 7.028364 21.038546l50.501818 61.114182v8.192H271.732364v-8.192l50.501818-61.114182a24.482909 24.482909 0 0 0 6.516363-21.038546V399.36a18.199273 18.199273 0 0 0-6.050909-15.685818l-44.869818-54.085818v-8.145455h139.357091l107.613091 236.078546 94.673455-235.892364h132.840727v7.959273z" /></svg>