<?xml version="1.0" standalone="no"?><!DOCTYPE svg PUBLIC "-//W3C//DTD SVG 1.1//EN" "http://www.w3.org/Graphics/SVG/1.1/DTD/svg11.dtd"><svg class="icon" width="200px" height="200.00px" viewBox="0 0 1024 1024" version="1.1" xmlns="http://www.w3.org/2000/svg"><path d="M512 32c265.08799969 0 480 214.91200031 480 480 0 265.08799969-214.91200031 480-480 480-265.08799969 0-480-214.91200031-480-480C32 246.91200031 246.91200031 32 512 32z m-8.544 620.19199969c-15.42400031 0-28.06399969 4.44799969-38.56000031 13.28000062-10.52800031 8.832-15.42400031 20.16-15.42399938 34.08 0 13.88800031 4.896 25.248 15.42399938 34.08a57.91999969 57.91999969 0 0 0 38.56000031 13.88799938c15.42400031 0 28.032-4.416 38.56000031-13.248 10.52800031-8.832 16.128-20.832 16.128-34.71999938 0-13.88800031-5.59999969-25.27999969-15.42400031-34.08-10.52800031-8.832-23.83999969-13.27999969-39.264-13.28000062zM516.06399969 288.00000031c-51.87199969 0-92.544 13.248-122.688 39.77599969-30.84799969 26.496-45.56800031 63.10399969-45.56799938 109.824h79.93599938c0-26.52799969 5.59999969-47.35999969 17.50400062-61.85599969 13.344-17.69599969 35.07199969-25.88800031 65.91999938-25.88800031 23.83999969 0 42.75199969 5.69599969 56.09600062 17.664 12.60799969 12 19.61599969 28.416 19.61599969 49.248 0 15.77599969-6.30400031 30.94399969-18.912 44.80000031l-8.41600031 8.86399969c-45.6 36.60799969-72.92800031 63.10399969-82.04799938 80.16-9.792 17.02399969-14.016 37.85599969-14.016 61.85599969v8.832h80.64v-8.832c0-15.168 3.52000031-28.416 10.49599969-41.02399969 6.30400031-11.35999969 15.42400031-22.08 28.06399969-31.584 33.63199969-26.496 53.952-43.51999969 60.288-49.85599969 16.83199969-20.19199969 25.92-46.08 25.92-77.63200031 0-38.496-14.016-68.80000031-42.048-90.88000031C598.784 298.71999969 561.60000031 288.00000031 516.06399969 288.00000031z" /></svg>