<?xml version="1.0" standalone="no"?><!DOCTYPE svg PUBLIC "-//W3C//DTD SVG 1.1//EN" "http://www.w3.org/Graphics/SVG/1.1/DTD/svg11.dtd"><svg class="icon" width="200px" height="200.00px" viewBox="0 0 1024 1024" version="1.1" xmlns="http://www.w3.org/2000/svg"><path d="M946.88 453.8a53.4 53.4 0 0 1 44.46 44.52h0.12l0.06 2.1c0.06 1.98 0.48 3.84 0.48 5.82l-0.18 1.92L992 512a480 480 0 0 1-465 479.76L512 992a473.1 473.1 0 0 1-294.18-102.78l-54.6 54.24a40.08 40.08 0 0 1-24.48 19.02l-2.1 2.16-0.06-1.68-4.32 0.96-4.26 0.6a41.1 41.1 0 0 1-41.1-41.1v-192c0-22.68 18.36-41.1 41.1-41.1h155.58l1.08-1.02 1.02 1.02H320c20.64 0 37.74 15.18 40.68 35.04l0.42 6.06a39 39 0 0 1-13.98 29.52l-53.52 53.16a369.6 369.6 0 0 0 201.6 71.28l16.8 0.36a373.68 373.68 0 0 0 373.68-372.72c-0.24-2.22-0.6-4.38-0.6-6.72l0.12-1.44 0.18-1.44a56.16 56.16 0 0 1-0.24-5.1h0.78a53.4 53.4 0 0 1 60.96-44.46zM512 32c111.6 0 213.66 38.7 295.02 102.72l50.82-49.38a41.22 41.22 0 0 1 79.26 15.24v192a41.1 41.1 0 0 1-41.1 41.1h-192a41.1 41.1 0 0 1-31.2-67.62l-0.3-0.36 57.66-56.16A371.04 371.04 0 0 0 512 138.32a373.44 373.44 0 0 0-373.02 360H138.8l0.12 1.14a53.46 53.46 0 1 1-106.02-9.84C32.54 487.94 32 486.32 32 484.58c0-5.04 1.2-9.72 2.88-14.16C56.06 224.96 261.08 32 512 32z" /></svg>