<?xml version="1.0" standalone="no"?><!DOCTYPE svg PUBLIC "-//W3C//DTD SVG 1.1//EN" "http://www.w3.org/Graphics/SVG/1.1/DTD/svg11.dtd"><svg class="icon" width="200px" height="200.00px" viewBox="0 0 1024 1024" version="1.1" xmlns="http://www.w3.org/2000/svg"><path d="M572.00581924 124.25989689l12.19558615-31.5936376 32.78668407 8.39551177c25.05397589 6.31872804 49.40096172 15.02354772 73.08514265 25.89352669l17.58638915 8.61644673 20.72365864 11.48859609 29.25173242 17.32126771-13.87468901 31.06339472a63.76170585 63.76170585 0 0 0 13.16769895 71.75953546c8.13039034 8.21876458 18.3375657 13.96306196 28.89823674 16.74683837l7.95364314 1.50235438 7.37921249 0.4860564 7.77689595-0.35349568c3.00471006-0.35349569 6.00941883-0.88373856 8.66063322-1.50235438L821.30834394 283.11182474l7.29083954-2.7837751 30.97502177-13.78631477 17.32126772 29.16335818c13.16769765 22.22601433 24.30279805 45.55670086 33.27274047 70.03624741l6.31872674 18.55850066 6.49547523 22.75625589 8.39551307 32.83087184-31.68201184 12.19558616c-25.27491086 9.72111895-41.53569153 33.14017975-41.53569283 59.96163146 0 21.73995792 10.69323177 41.40313081 27.83775101 52.93591466l6.6722237 3.93263379 7.02571812 3.09308432 31.63782407 12.19558615-8.39551177 32.83087055a418.89187209 418.89187209 0 0 1-25.98190093 73.08514394l-8.61644673 17.63057562-11.57696903 20.67947217-17.32126772 29.07498394-30.88664753-13.69794053a64.77800513 64.77800513 0 0 0-71.75953546 13.12351118 63.58495866 63.58495866 0 0 0-17.89569707 56.47086631l1.85585007 7.42340026 2.96052229 7.82108241 13.78631478 30.97502048-29.16335818 17.32126771a421.36633926 421.36633926 0 0 1-70.03624611 33.27274048l-18.55850067 6.31872804-22.71207071 6.49547523-32.87505832 8.39551177-12.19558615-31.68201184a63.80589232 63.80589232 0 0 0-59.96163147-41.53569153c-21.65158367 0-41.31475786 10.73741824-52.93591335 27.83775099l-3.97682157 6.76059667-3.09308432 6.98153035-12.19558615 31.59363889-32.78668407-8.39551307a423.17800156 423.17800156 0 0 1-73.08514265-25.89352668l-17.58638915-8.61644674-20.72365864-11.48859607-29.25173242-17.32126642 13.83050124-31.06339602c11.04672615-24.7004802 5.87685812-52.71497969-13.07932342-71.71534898a63.31983721 63.31983721 0 0 0-45.24739295-18.77943434c-4.55125092 0-9.10250314 0.48605641-13.2560719 1.32560719L202.69165606 740.93236173l-7.29083954 2.7837751-30.97502177 13.78631478-17.32126772-29.16335818a421.18959077 421.18959077 0 0 1-33.27274047-70.03624611l-6.31872674-18.55850067-6.49547523-22.75625719-8.39551307-32.83087184 31.68201184-12.19558615c25.27491086-9.72111895 41.53569153-33.14017975 41.53569283-59.96163147 0-21.65158367-10.73741824-41.31475786-27.83775101-52.93591335l-6.71641019-3.93263511-7.0257181-3.09308301-31.54945113-12.23977392 8.30713883-32.78668407c6.40710098-25.05397589 15.02354772-49.44514819 26.0260874-73.08514265l8.6606332-17.63057562 11.48859609-20.67947217 17.36545419-29.03079747 30.930834 13.69794054a64.68963088 64.68963088 0 0 0 71.75953676-13.16769767 63.62914512 63.62914512 0 0 0 17.8515093-56.47086629l-1.85585007-7.42340027-2.96052229-7.82108242-13.7421283-30.97502177 29.16335818-17.32126772a420.96865711 420.96865711 0 0 1 69.99205963-33.27274047l18.55850067-6.31872674 22.75625719-6.49547523 32.87505831-8.39551307 12.15139968 31.68201184c9.72111895 25.27491086 33.14017975 41.53569153 59.96163147 41.53569283 21.65158367 0 41.35894433-10.73741824 52.93591335-27.83775101l3.97682157-6.76059666 3.09308432-6.98153163z m-174.14059831 59.0778942l-3.09308301 1.10467224-15.77472557 6.05360659-15.24448269 6.76059667-3.49076645 1.67910158 1.32560719 8.70482097a139.32131568 139.32131568 0 0 1-32.56574911 104.89971522l-7.8652702 8.52807378a139.58643712 139.58643712 0 0 1-112.01380756 40.51939226l-10.16298759-1.36979367-1.50235568 3.09308301a343.59738368 343.59738368 0 0 0-6.84896961 15.42123118l-6.00942013 15.55379059-1.23723295 3.62332589 6.40710099 4.72799942a139.40968993 139.40968993 0 0 1 51.83124113 97.69724991l0.44186992 11.66534327c0 43.83341152-19.97248209 84.13187009-53.55453047 110.37889246l-5.21405581 3.66751236 1.14886 3.22564504 6.05360659 15.77472555 6.76059667 15.24448269 1.67910158 3.35820446 5.96523235-0.88373857c2.82796157-0.30930791 5.61173667-0.53024288 8.48388602-0.70699007l8.52807379-0.26512144c37.470497 0 72.73164827 14.62586557 99.19960429 41.13800938a141.17716575 141.17716575 0 0 1 40.16589787 114.22315331l-1.19304648 7.73270818 3.09308302 1.63491639c5.16986804 2.43027941 10.33973609 4.72799941 15.46541764 6.84896961l15.64216484 6.00942013 3.62332589 1.19304648 4.77218589-6.31872803a139.40968993 139.40968993 0 0 1 97.65306344-51.87542762l11.66534327-0.44186992c43.83341152 0 84.13187009 19.97248209 110.37889246 53.55453047l3.66751236 5.12568157 3.22564504-1.06048576 15.73053779-6.05360659 15.28867045-6.76059667 3.35820446-1.76747582-1.23723296-8.61644673a139.32131568 139.32131568 0 0 1 32.56574911-104.89971522l7.8652702-8.52807378a139.54225065 139.54225065 0 0 1 116.38831128-40.03333715l5.65592316 0.79536431 1.63491639-3.00470876 6.89315739-15.46541765 5.96523235-15.50960412 1.19304648-3.71170014-6.31872803-4.59543869a139.32131568 139.32131568 0 0 1-51.87542762-97.74143639L781.98199815 512c0-43.83341152 19.97248209-84.13187009 53.55453048-110.37889246l5.03730733-3.75588661-0.9721128-3.09308301a347.48583101 347.48583101 0 0 0-6.05360531-15.77472557l-6.76059667-15.28867045-1.76747712-3.49076517-11.00253968 1.50235438-12.68164125 0.44186994-11.57697032-0.48605641a139.18875497 139.18875497 0 0 1-86.82727095-40.6077665 141.17716575 141.17716575 0 0 1-40.16589787-114.22315331l1.10467352-7.82108242-3.04889654-1.54654215a348.10444813 348.10444813 0 0 0-15.46541764-6.84896961l-15.59797838-6.00942013-3.71170013-1.23723295-4.68381164 6.40710099a139.40968993 139.40968993 0 0 1-97.65306343 51.83124113L512 242.01800185a139.54225065 139.54225065 0 0 1-110.37889246-53.55453048l-3.75588661-5.21405452zM512 361.19008823A150.94247248 150.94247248 0 0 1 662.80991177 512 150.94247248 150.94247248 0 0 1 512 662.80991177 150.94247248 150.94247248 0 0 1 361.23427601 512a151.07503321 151.07503321 0 0 1 129.55600895-149.26336961l10.64904399-1.14885999 10.56067105-0.35349439z m0 79.53643142c-39.28215931 0-71.27348035 31.94713328-71.27348035 71.22929388 0 39.28215931 31.99131975 71.27348035 71.27348035 71.27347905s71.27348035-31.99131975 71.27348035-71.27347905-31.99131975-71.27348035-71.27348035-71.27348036z" /></svg>