<?xml version="1.0" standalone="no"?><!DOCTYPE svg PUBLIC "-//W3C//DTD SVG 1.1//EN" "http://www.w3.org/Graphics/SVG/1.1/DTD/svg11.dtd"><svg class="icon" width="200px" height="200.00px" viewBox="0 0 1024 1024" version="1.1" xmlns="http://www.w3.org/2000/svg"><path d="M512 48.19809542c252.48 0 457.1428575 204.6628575 457.1428575 457.14285656s-204.6628575 457.1428575-457.1428575 457.1428575-457.1428575-204.6628575-457.1428575-457.1428575 204.6628575-457.1428575 457.1428575-457.14285656zM328.41142812 290.20952417a34.10285719 34.10285719 0 0 0-26.42285625 12.52571437H243.10857125l11.33714344 35.56571344c12.98285719 40.59428531 30.58285687 75.10857187 52.34285718 102.58285782 19.3828575 24.50285719 42.69714281 44.20571437 69.30285657 58.56 21.53142844 11.65714313 45.39428531 20.02285687 72.96 25.59999937 22.99428562 4.6171425 44.80000031 6.58285687 64.00000031 8.32000031l5.30285719 0.45714282 0.7771425 0.09142875h0.82285687l5.9428575 0.09142875 3.0628575-0.09142875c1.92 0.41142844 20.02285687 4.29714281 35.29142813 15.67999968 8.68571437 6.49142813 15.40571438 15.67999969 20.11428562 27.33714281l1.82857125 5.02857188 0.64000031 4.47999938c1.18857188 11.42857125 0 22.35428531-3.47428593 32.45714343-3.33714281 9.64571438-8.86857187 18.83428594-16.36571438 27.42857157a107.52 107.52 0 0 1-8.18285719 8.22857156l-4.38857062 3.79428562-0.59428594-0.50285718-2.74285687-2.51428594-61.48571438-65.37142875a38.08000031 38.08000031 0 0 0-59.24571469 4.57142906l-45.12 66.0571425a38.08000031 38.08000031 0 0 0 31.54285688 59.56571438l107.10857156-0.13714313h0.91428563c3.6571425-0.13714313 6.85714313-0.31999969 9.64571437-0.50285719l16.04571469 0.73142907c3.74857125 0.13714313 7.31428594 0.22857188 10.92571406 0.22857093 33.82857188 0 64.36571437-7.31428594 90.74285719-21.75999937 22.53714281-12.34285687 41.96571469-29.80571438 57.7828575-51.93142875 20.9371425-29.21142844 31.40571469-60.93714281 36.52571437-82.46857125a235.42857187 235.42857187 0 0 0 5.30285625-30.85714313c0.50285719-5.02857187 0.68571469-8.91428531 0.68571469-12.11428593l-0.09142875-2.88 0.54857156-3.88571438a161.00571469 161.00571469 0 0 0-27.19999968-110.03428594 178.42285689 178.42285689 0 0 0-35.47428563-38.85714281 140.11428563 140.11428563 0 0 0-43.42857187-35.56571437 215.8171425 215.8171425 0 0 0-50.01142875-19.06285688 275.10857156 275.10857156 0 0 0-57.87428532-8.31999937H354.87999969a34.14857156 34.14857156 0 0 0-26.46857157-12.52571438z" /></svg>