<?xml version="1.0" standalone="no"?><!DOCTYPE svg PUBLIC "-//W3C//DTD SVG 1.1//EN" "http://www.w3.org/Graphics/SVG/1.1/DTD/svg11.dtd"><svg class="icon" width="200px" height="200.00px" viewBox="0 0 1024 1024" version="1.1" xmlns="http://www.w3.org/2000/svg"><path d="M512 45.96622222a466.03377778 466.03377778 0 0 1 466.03377778 466.03377778l-0.23301689 14.56355555A466.03377778 466.03377778 0 0 1 45.96622222 512l0.23301689-14.56355555A466.03377778 466.03377778 0 0 1 512 45.96622222z m145.63555555 434.110464a13.1072 13.1072 0 0 0-17.35975822 0v69.55554133H437.026816c-8.62162489 0-12.93243733 4.36906667-12.93243733 13.04894578v104.39156622c0 8.73813333 4.31081245 13.04894578 12.93243733 13.04894578h198.93816889v73.98286222c0 8.62162489 4.31081245 12.99069155 12.99069156 12.99069156 4.31081245 0 4.31081245-4.36906667 8.62162488-4.36906666l151.34446934-139.1693369a13.28196267 13.28196267 0 0 0 0-17.35975822zM367.8208 271.29355378c-4.31081245 0-8.67987911 0-8.67987911 4.36906667L229.46702222 393.16138667a13.28196267 13.28196267 0 0 0 0 17.35975822l129.73215289 113.07144533a13.1072 13.1072 0 0 0 17.301504 0c4.31081245-4.31081245 4.31081245-4.31081245 4.31081244-8.67987911v-47.82671644h203.30723556c8.62162489 0 12.93243733-4.36906667 12.93243734-13.04894578V349.58722845c0-8.73813333-4.31081245-13.04894578-12.99069156-13.04894578H380.81149155v-52.19578312c0-8.67987911-4.31081245-13.04894578-12.93243733-13.04894577z" /></svg>