<?xml version="1.0" standalone="no"?><!DOCTYPE svg PUBLIC "-//W3C//DTD SVG 1.1//EN" "http://www.w3.org/Graphics/SVG/1.1/DTD/svg11.dtd"><svg class="icon" width="200px" height="200.00px" viewBox="0 0 1024 1024" version="1.1" xmlns="http://www.w3.org/2000/svg"><path d="M512 46.545455c257.070545 0 465.454545 208.384 465.454545 465.454545s-208.384 465.454545-465.454545 465.454545S46.545455 769.070545 46.545455 512 254.929455 46.545455 512 46.545455z m5.259636 186.181818A115.618909 115.618909 0 0 0 400.756364 347.042909a115.2 115.2 0 0 0 97.28 114.315636v15.825455c-90.065455 7.493818-177.105455 79.034182-184.878546 169.099636-19.549091 6.283636-33.978182 24.529455-33.978182 46.08a49.105455 49.105455 0 0 0 98.210909 0.930909 48.221091 48.221091 0 0 0-29.742545-45.242181c6.888727-71.493818 78.941091-128.651636 150.341818-136.145455l-0.605091 93.696a48.500364 48.500364 0 0 0-31.511272 45.149091 49.105455 49.105455 0 0 0 98.164363 0.930909 48.360727 48.360727 0 0 0-32.116363-46.08l0.60509-93.090909c70.795636 8.704 141.637818 65.536 148.247273 136.750545a48.593455 48.593455 0 0 0-34.210909 46.08 49.105455 49.105455 0 0 0 98.117818 0.93091c0-20.386909-12.008727-37.701818-29.416727-45.521455-5.678545-90.670545-92.16-164.305455-182.458182-173.242182v-15.825454a115.060364 115.060364 0 0 0 99.048727-112.826182A115.618909 115.618909 0 0 0 517.259636 232.727273z" /></svg>