<?xml version="1.0" standalone="no"?><!DOCTYPE svg PUBLIC "-//W3C//DTD SVG 1.1//EN" "http://www.w3.org/Graphics/SVG/1.1/DTD/svg11.dtd"><svg class="icon" width="200px" height="200.00px" viewBox="0 0 1024 1024" version="1.1" xmlns="http://www.w3.org/2000/svg"><path d="M730.45105813 809.31498667c2.18453333 0 4.00497813 1.85685333 4.00497707 4.15061333v58.4726752a4.0777952 4.0777952 0 0 1-4.00497707 4.15061333H299.80672c-2.18453333 0-4.00497813-1.8204448-4.00497814-4.15061333V813.4656c0-2.29376 1.8204448-4.15061333 4.00497814-4.15061333zM893.92696853 147.91111147C915.9907552 147.91111147 933.83111146 166.40682667 933.83111146 189.2352v518.35335147c0 22.82837333-17.8403552 41.32408853-39.86773333 41.32408853H136.2944C114.26702186 748.91264 96.42666666 730.4169248 96.42666666 707.58855147V189.2352C96.42666666 166.40682667 114.26702186 147.91111147 136.2944 147.91111147z m-272.37489707 133.54780373l-38.3749696 39.79491627 115.16131627 119.38474666-115.16131627 119.34833707 38.3749696 39.8313248 153.4998752-159.17966187z m-210.5526048 0L257.46318186 440.63857813l153.5362848 159.14325334 38.41137814-39.79491627L334.17671146 440.63857813l115.19772374-119.38474666z" /></svg>