<?xml version="1.0" standalone="no"?><!DOCTYPE svg PUBLIC "-//W3C//DTD SVG 1.1//EN" "http://www.w3.org/Graphics/SVG/1.1/DTD/svg11.dtd"><svg class="icon" width="200px" height="200.00px" viewBox="0 0 1024 1024" version="1.1" xmlns="http://www.w3.org/2000/svg"><path d="M512 32c265.12000031 0 480 214.87999969 480 480s-214.97599969 480-480 480S32 777.02400031 32 512 246.87999969 32 512 32z m42.68800031 147.67999969c-31.32799969 0-32.60800031 19.07200031-33.28000031 29.44000031a16.28800031 16.28800031 0 0 1-0.96 5.79199969c0 96.31999969-105.63199969 171.84-105.63199969 171.84v273.18400031c0 26.976 37.95199969 36.672 52.8 36.672h213.56799938c20.09599969 0 36.48-51.04000031 36.48-51.04000031 49.50400031-163.104 52.57600031-218.784 52.8-225.12v-0.63999938c0-34.14400031-32.22400031-33.28000031-35.45599969-33.08800031h-142.39999969c55.104-196.96000031-37.92-207.04000031-37.92-207.04000031z m-197.92000031 207.168H271.35999969c-17.59999969 0-17.856 16.704-17.856 16.704l17.60000062 275.52c0 17.53600031 18.11200031 17.53600031 18.11199938 17.53600031h73.66400062c15.36 0 15.19999969-11.58400031 15.19999969-11.58400031v-277.27999969c0-19.776-18.84799969-20.86399969-21.34399969-20.89600031z" /></svg>