<?xml version="1.0" standalone="no"?><!DOCTYPE svg PUBLIC "-//W3C//DTD SVG 1.1//EN" "http://www.w3.org/Graphics/SVG/1.1/DTD/svg11.dtd"><svg class="icon" width="200px" height="200.00px" viewBox="0 0 1024 1024" version="1.1" xmlns="http://www.w3.org/2000/svg"><path d="M992 512c0-265.12000031-214.87999969-480-480-480S32 246.97599969 32 512s214.97599969 480 480 480 480-214.87999969 480-480z m-257.24800031 125.24800031H592.64c55.03999969 196.992-37.95199969 207.04000031-37.95199969 207.03999938-31.32799969 0-32.60800031-19.03999969-33.28000031-29.40799969a16.32 16.32 0 0 0-0.96-5.79199969c0-96.31999969-105.63199969-171.84-105.63199969-171.84v-273.18400031c0-26.976 37.95199969-36.672 52.8-36.672h213.56799938c20.09599969 0 36.48 51.04000031 36.48 51.04000031 52.8 173.98399969 52.8 225.76000031 52.8 225.75999938 0 35.93599969-35.712 33.05599969-35.712 33.05600062z m-378.24-0.096H271.35999969c-17.59999969 0-17.856-16.704-17.856-16.704l17.60000062-275.52c0-17.53600031 18.11200031-17.53600031 18.11199938-17.53600031h73.66400062c15.36 0 15.19999969 11.58400031 15.19999969 11.58400031v277.31199938c0 21.12-21.63199969 20.86399969-21.63199969 20.86400062z" /></svg>