<?xml version="1.0" standalone="no"?><!DOCTYPE svg PUBLIC "-//W3C//DTD SVG 1.1//EN" "http://www.w3.org/Graphics/SVG/1.1/DTD/svg11.dtd"><svg class="icon" width="200px" height="200.00px" viewBox="0 0 1024 1024" version="1.1" xmlns="http://www.w3.org/2000/svg"><path d="M994.47959157 206.6974092a394.57526518 394.57526518 0 0 1-113.71224178 31.06891852 198.63395199 198.63395199 0 0 0 86.99297186-109.44544403 398.84206292 398.84206292 0 0 1-125.60128046 48.05326103 198.01257362 198.01257362 0 0 0-337.36703029 180.44827876 561.14609326 561.14609326 0 0 1-408.12131365-206.83614769c-17.64714572 30.24041362-26.92639645 64.62335052-26.8435456 99.58624096 0 68.64159691 34.88003959 129.24670103 88.11145292 164.7481178a196.76981689 196.76981689 0 0 1-89.64418583-24.85513482v2.56836433a197.88829795 197.88829795 0 0 0 158.78288543 194.11860291 197.05979426 197.05979426 0 0 1-89.39563448 3.43829405 198.30255101 198.30255101 0 0 0 184.8807782 137.61459602A397.06077867 397.06077867 0 0 1 29.52040843 809.0201754a559.8619117 559.8619117 0 0 0 303.43977006 89.06423349c364.21057589 0 563.38305539-301.74133665 563.3830566-563.38305539 0-8.45074583-0.33140221-17.15004302-0.6628044-25.6422149a405.63580018 405.63580018 0 0 0 98.79916088-102.32030458z" /></svg>