<?xml version="1.0" standalone="no"?><!DOCTYPE svg PUBLIC "-//W3C//DTD SVG 1.1//EN" "http://www.w3.org/Graphics/SVG/1.1/DTD/svg11.dtd"><svg t="1684316876167" class="icon" viewBox="0 0 1024 1024" version="1.1" xmlns="http://www.w3.org/2000/svg" p-id="2876" xmlns:xlink="http://www.w3.org/1999/xlink" width="200" height="200"><path d="M999.619048 24.380952H24.380952v975.238096h975.238096V24.380952z m-394.630096 273.554286l15.116191-1.950476h0.536381v-0.487619c36.132571-1.950476 71.289905 12.141714 96.109714 38.521905a198.070857 198.070857 0 0 0 63.390476-20.967619l15.116191-8.289524c-7.314286 22.430476-20.967619 42.422857-39.497143 57.539047-4.388571 3.900952-8.777143 7.314286-13.653333 9.752381 23.893333-2.925714 47.250286-9.313524 69.241904-19.017143-11.215238 17.944381-25.258667 34.084571-41.447619 47.786667l-19.504762 16.091429c0.975238 26.331429-0.975238 53.150476-5.851428 78.994285-30.72 137.99619-111.664762 231.619048-239.518476 271.60381-56.56381 16.091429-116.540952 18.041905-174.08 5.851429-24.380952-5.851429-48.274286-13.653333-71.68-23.405715-12.190476-4.87619-23.405714-10.727619-34.620953-17.554285l-10.727619-6.339048c12.873143 1.950476 25.941333 2.438095 39.009524 1.462857 5.607619-0.877714 11.068952-1.26781 16.335238-1.657905 6.631619-0.487619 13.019429-0.926476 19.212191-2.291809a264.094476 264.094476 0 0 0 73.142857-26.819048c11.897905-5.753905 23.064381-12.970667 33.158095-21.455238-12.190476 0-24.380952-1.950476-36.08381-6.339048-36.571429-12.678095-65.340952-41.447619-77.531428-78.506666 12.190476 1.462857 46.811429 4.388571 54.613333-2.438095-14.628571-1.950476-28.281905-7.314286-39.984762-16.091429a117.662476 117.662476 0 0 1-57.539047-105.325714l13.165714 4.87619c8.289524 3.413333 16.969143 5.851429 25.843809 7.314286a32.182857 32.182857 0 0 0 16.579048 1.462857 76.312381 76.312381 0 0 0-10.044952-8.484571 68.998095 68.998095 0 0 1-12.385524-11.020191 127.024762 127.024762 0 0 1-27.306667-111.664762c3.023238-11.068952 7.460571-21.699048 13.165715-31.695238 3.31581 4.729905 7.070476 9.118476 11.215238 13.165714 10.630095 13.165714 22.77181 25.161143 36.083809 35.596191 43.398095 35.59619 94.549333 60.464762 149.260191 72.655238 17.554286 4.87619 36.08381 7.314286 54.613333 7.314286-4.87619-18.529524-4.87619-38.521905 0-57.539048a121.270857 121.270857 0 0 1 69.241905-82.407619c8.777143-3.413333 18.041905-6.339048 27.306666-8.289524z" p-id="2877"></path></svg>