<?xml version="1.0" standalone="no"?>
<!DOCTYPE svg PUBLIC "-//W3C//DTD SVG 1.1//EN" "http://www.w3.org/Graphics/SVG/1.1/DTD/svg11.dtd">
<svg class="icon" version="1.1" viewBox="0 0 1024 1024" fill="currentColor" aria-hidden="true">
  <path d="M301.009455 537.879273c26.856727 0 49.617455 21.690182 49.617454 49.617454 0 130.327273 105.518545 235.845818 235.845818 235.845818 27.927273 0 49.664 21.736727 49.664 48.593455 0 26.903273-21.736727 49.664-49.664 49.664-185.157818 0-335.127273-149.969455-335.127272-334.103273 0-26.903273 21.736727-49.617455 49.664-49.617454zM871.936 386.792727c26.903273 0 49.664 21.736727 49.664 49.664 0 184.087273-149.969455 334.103273-335.127273 334.103273a49.664 49.664 0 0 1 0-99.328c130.327273 0 235.845818-105.472 235.845818-235.799273 0-25.879273 22.760727-48.64 49.617455-48.64zM437.527273 253.393455a49.664 49.664 0 0 1 0 99.328 235.706182 235.706182 0 0 0-235.845818 235.799272c-1.024 25.879273-22.760727 48.64-49.617455 48.64A49.664 49.664 0 0 1 102.4 587.496727c0-184.087273 149.969455-334.103273 335.127273-334.103272zM438.551273 102.4c185.157818 0 335.127273 149.969455 335.127272 334.103273a49.664 49.664 0 0 1-99.281454 0c0-130.327273-105.518545-235.845818-235.845818-235.845818-27.927273 0-49.617455-21.736727-49.617455-48.593455 0-26.903273 21.690182-49.664 49.617455-49.664z"/>
</svg>
