<?xml version="1.0" standalone="no"?>
<!DOCTYPE svg PUBLIC "-//W3C//DTD SVG 1.1//EN" "http://www.w3.org/Graphics/SVG/1.1/DTD/svg11.dtd">
<svg class="icon" version="1.1" viewBox="0 0 1024 1024" fill="currentColor" aria-hidden="true">
  <path d="M512 636.27567408a124.27567408 124.27567408 0 1 0 0-248.55134816 124.27567408 124.27567408 0 0 0 0 248.55134816zM180.59820206 56.32252799a124.27567408 124.27567408 0 1 1 0 248.55134815 124.27567408 124.27567408 0 0 1 0-248.55134815z m0 56.95968476a67.31599053 67.31599053 0 1 0 0 134.63197984 67.31599053 67.31599053 0 0 0 0-134.63197984zM512 304.87387614a124.27567408 124.27567408 0 1 0 0-248.55134815 124.27567408 124.27567408 0 0 0 0 248.55134815z m-331.40179794 82.85044978a124.27567408 124.27567408 0 1 1 0 248.55134816 124.27567408 124.27567408 0 0 1 0-248.55134816z m0 56.95968355a67.31599053 67.31599053 0 1 0 0 134.63198106 67.31599053 67.31599053 0 0 0 0-134.63198106zM180.59820206 967.67747201a124.27567408 124.27567408 0 1 0 0-248.55134815 124.27567408 124.27567408 0 0 0 0 248.55134815z m331.40179794 0a124.27567408 124.27567408 0 1 0 0-248.55134815 124.27567408 124.27567408 0 0 0 0 248.55134815z m331.40179794-662.80359587a124.27567408 124.27567408 0 1 0 0-248.55134815 124.27567408 124.27567408 0 0 0 0 248.55134815z m0 82.85044978a124.27567408 124.27567408 0 1 1 0 248.55134816 124.27567408 124.27567408 0 0 1 0-248.55134816z m0 56.95968355a67.31599053 67.31599053 0 1 0 0 134.63198106 67.31599053 67.31599053 0 0 0 0-134.63198106zM843.40179794 967.67747201a124.27567408 124.27567408 0 1 0 0-248.55134815 124.27567408 124.27567408 0 0 0 0 248.55134815z"/>
</svg>
