<?xml version="1.0" standalone="no"?>
<!DOCTYPE svg PUBLIC "-//W3C//DTD SVG 1.1//EN" "http://www.w3.org/Graphics/SVG/1.1/DTD/svg11.dtd">
<svg class="icon" version="1.1" viewBox="0 0 1024 1024" fill="currentColor" aria-hidden="true">
  <path d="M512 75.09333333c241.28170667 0 436.90666667 195.62496 436.90666667 436.90666667s-195.62496 436.90666667-436.90666667 436.90666667S75.09333333 753.28170667 75.09333333 512 270.71829333 75.09333333 512 75.09333333z m-123.28049813 297.64266667c-75.07512853 0-120.51342187 61.4582048-120.51342187 159.79861333 0 98.7773152 45.00138667 160.4175648 120.51342187 160.4175648 75.32999147 0 120.14933333-62.0771552 120.14933333-160.63601813s-45.25624853-159.58016-120.14933333-159.58016z m220.0553248 127.50392853h-47.80487147l60.07466667 93.49802667-60.73002667 93.02471147h45.54752l39.10314667-67.42926187h1.0194496l39.24878186 67.42926187h46.60337814l-59.56494294-94.2262048 60.22030294-92.29653334h-46.60337814l-37.8652448 66.0457248h-0.87381333l-38.37496853-66.0457248z m-220.0553248-82.50254186c40.34104853 0 64.44373333 42.88967147 64.44373333 114.79722666 0 72.52650667-23.66577813 115.41617813-64.44373333 115.41617814-40.96 0-65.0626848-43.1081248-65.06268374-115.63463147 0-71.2521952 24.53959147-114.57877333 65.06268374-114.57877333z"/>
</svg>
