<?xml version="1.0" standalone="no"?>
<!DOCTYPE svg PUBLIC "-//W3C//DTD SVG 1.1//EN" "http://www.w3.org/Graphics/SVG/1.1/DTD/svg11.dtd">
<svg class="icon" version="1.1" viewBox="0 0 1024 1024" fill="currentColor" aria-hidden="true">
  <path d="M970.99148917 395.38733511a106.21427651 106.21427651 0 0 0-105.92429912-105.88287431H211.87424711a52.03008261 52.03008261 0 0 1-52.94143716-52.98286198c0-29.99186227 24.68943431-52.94143715 52.94143716-52.94143715h600.25150578c29.99186227 0 52.94143715-22.94957488 52.94143716-52.98286319 0-29.99186227-22.94957488-52.94143715-52.94143716-52.94143716h-52.98286198 35.29429144H158.93280995A106.21427651 106.21427651 0 0 0 53.00851083 183.58016167V854.37882428a106.21427651 106.21427651 0 0 0 105.92429912 105.92430035h706.1343801a106.21427651 106.21427651 0 0 0 105.92429912-105.92430035V395.38733511z m-353.06719004 229.4957452c0-29.99186227 22.94957488-52.94143715 52.94143716-52.94143717h141.2600166c29.99186227 0 52.94143715 22.94957488 52.94143716 52.98286198 0 29.99186227-22.94957488 52.94143715-52.94143716 52.94143716h-141.2600166a52.03008261 52.03008261 0 0 1-52.94143716-52.94143716z"/>
</svg>
