<?xml version="1.0" standalone="no"?>
<!DOCTYPE svg PUBLIC "-//W3C//DTD SVG 1.1//EN" "http://www.w3.org/Graphics/SVG/1.1/DTD/svg11.dtd">
<svg class="icon" version="1.1" viewBox="0 0 1024 1024" fill="currentColor" aria-hidden="true">
  <path d="M121.92000031 871.58400031h839.35999969c15.936 0 28.96000031 12.70399969 28.96000031 28.224a28.67200031 28.67200031 0 0 1-28.92800062 28.19199938H63.99999969V124.19199969C63.99999969 108.67200031 77.024 96.00000031 92.92800031 96.00000031c15.936 0 28.96000031 12.70399969 28.95999938 28.19199938v747.39200062z m405.216-42.30400031V172.16c0-18.336-14.496-33.85600031-31.84000031-33.85600031h-95.55199969c-17.34400031 0-31.80799969 15.52000031-31.80800062 33.85600031v657.12h159.20000062z m-202.62400031 0V369.60000031a31.99999969 31.99999969 0 0 0-31.84000031-32.41600031H197.15199969c-17.376 0-31.84000031 15.48799969-31.83999938 32.41600031v459.71199938H324.48000031z m405.216-290.496v290.496h-159.19999969v-290.496c0-18.336 14.46400031-33.82399969 31.83999938-33.82399969h95.52c17.376 0 31.84000031 15.48799969 31.84000031 33.82399969z m202.62400031 290.496V369.60000031a31.99999969 31.99999969 0 0 0-31.84000031-32.41600031h-95.52c-17.376 0-31.84000031 15.48799969-31.84000031 32.41600031v459.71199938h159.20000062z"/>
</svg>
