<?xml version="1.0" standalone="no"?>
<!DOCTYPE svg PUBLIC "-//W3C//DTD SVG 1.1//EN" "http://www.w3.org/Graphics/SVG/1.1/DTD/svg11.dtd">
<svg class="icon" version="1.1" viewBox="0 0 1024 1024" fill="currentColor" aria-hidden="true">
  <path d="M896 640h85.345103v85.345103h-85.345103v-85.345103z m0-170.654897h85.345103v85.309794h-85.345103v-85.309794z m85.345103 341.309794h-85.345103v85.345103c42.654897 0 85.345103-42.654897 85.345103-85.345103zM554.654897 128h85.345103v85.345103h-85.345103V128z m341.345103 170.654897h85.345103v85.345103h-85.345103V298.654897z m0-170.654897v85.345103h85.345103c0-42.690207-42.690207-85.345103-85.345103-85.345103zM42.654897 298.654897h85.345103v85.345103H42.654897V298.654897z m682.690206-170.654897h85.309794v85.345103h-85.309794V128z m0 682.654897h85.309794v85.345103h-85.309794v-85.345103zM128 128c-42.654897 0-85.345103 42.654897-85.345103 85.345103h85.345103V128z m256 0h85.345103v85.345103h-85.345103V128z m-170.654897 0h85.309794v85.345103H213.345103V128z m-170.690206 341.345103v341.309794a85.592276 85.592276 0 0 0 85.345103 85.345103h512V469.345103H42.654897z"/>
</svg>
