<?xml version="1.0" standalone="no"?>
<!DOCTYPE svg PUBLIC "-//W3C//DTD SVG 1.1//EN" "http://www.w3.org/Graphics/SVG/1.1/DTD/svg11.dtd">
<svg class="icon" version="1.1" viewBox="0 0 1024 1024" fill="currentColor" aria-hidden="true">
  <path d="M272.64505173 967.67747201a216.98532693 216.98532693 0 0 1-153.14905528-63.21489329A214.54123827 214.54123827 0 0 1 56.32252799 751.23067259c0-58.11959065 22.24534565-112.26235851 63.17346846-153.1904813l164.2510151-164.37529078a214.29268692 214.29268692 0 0 1 153.14905649-63.17346846c58.11959065 0 112.17950887 22.24534565 153.10763046 63.17346846a40.92812159 40.92812159 0 0 1 0 58.16101547 40.84527195 40.84527195 0 0 1-58.11959065 0 132.14646636 132.14646636 0 0 0-94.49093711-38.93971202 131.31796268 131.31796268 0 0 0-94.49093833 38.93971202L178.60979129 656.15978192a134.63197984 134.63197984 0 0 0 0 189.64467865c25.26938666 25.26938666 58.65811817 38.93971081 94.53236314 38.9397108a131.31796268 131.31796268 0 0 0 94.49093712-38.9397108l164.2510163-164.33386596a40.84527195 40.84527195 0 0 1 58.11959065 0 40.92812159 40.92812159 0 0 1 0 58.16101547l-164.25101631 164.33386595A212.46997785 212.46997785 0 0 1 272.64505173 967.67747201z m467.48366105-377.75662436l164.25101509-164.33386595a216.44679941 216.44679941 0 0 0 0-305.92528475 216.19824807 216.19824807 0 0 0-305.75958304 0l-164.25101631 164.33386594a40.92812159 40.92812159 0 0 0 0 58.16101547 40.88669677 40.88669677 0 0 0 58.11959065 0l164.25101631-164.33386594a132.14646636 132.14646636 0 0 1 94.49093711-38.93971081c35.91566981 0 69.76007797 13.67032415 94.53236315 38.93971081a134.63197984 134.63197984 0 0 1 0 189.60325381l-164.25101631 164.37529076a134.46627935 134.46627935 0 0 1-189.52040295 0 40.88669677 40.88669677 0 0 0-58.11959066 0 40.92812159 40.92812159 0 0 0 0 58.11959066 216.11539722 216.11539722 0 0 0 153.10763047 63.21489328c55.59265113 0 110.68820078-20.71261275 153.14905649-63.21489328z"/>
</svg>
