<?xml version="1.0" standalone="no"?>
<!DOCTYPE svg PUBLIC "-//W3C//DTD SVG 1.1//EN" "http://www.w3.org/Graphics/SVG/1.1/DTD/svg11.dtd">
<svg class="icon" version="1.1" viewBox="0 0 1024 1024" fill="currentColor" aria-hidden="true">
  <path d="M512 32c265.08 0 480 214.92 480 480s-214.92 480-480 480S32 777.08 32 512 246.92 32 512 32z m149.95999969 447.12a13.48000031 13.48000031 0 0 0-17.83999969 0v71.64H434.79999969c-8.92000031 0-13.36000031 4.51999969-13.35999938 13.48000031v107.47999969c0 8.95999969 4.44 13.44 13.35999938 13.44h204.88000031v76.15999969c0 8.95999969 4.44 13.44 13.36000031 13.44 2.23999969 0 3.36-1.12000031 4.44-2.23999969l1.2-1.08a4.96000031 4.96000031 0 0 1 3.27999938-1.2l155.88-143.32000031a13.68 13.68 0 0 0 0-17.91999938z m-298.39999969-214.99999969c-4.48000031 0-8.92000031 0-8.92000031 4.47999938l-133.59999938 120.92000062a13.68 13.68 0 0 0 0 17.91999938l133.59999938 116.48000062a13.48000031 13.48000031 0 0 0 17.80000031 0c2.56000031-2.59999969 3.64000031-3.67999969 4.12000031-5.00000062 0.36-0.96 0.36-2.08000031 0.36-3.99999938v-49.24000031h209.31999938c8.92000031 0 13.36000031-4.48000031 13.36000031-13.44V344.72c0-8.95999969-4.44-13.44-13.36000031-13.44H376.92000031V277.59999969c0-8.95999969-4.48000031-13.44-13.36000031-13.44z"/>
</svg>
