<svg xmlns="http://www.w3.org/2000/svg" class="icon" viewBox="0 0 1024 1024" fill="currentColor" aria-hidden="true">
  <path d="M512 32c265.104 0 480 214.896 480 480S777.104 992 512 992 32 777.104 32 512 246.896 32 512 32zm55.344 289.056c-15.216-5.856-34.128 13.488-42.288 43.2l-81.744 298.272c-8.16 29.76-2.448 58.56 12.72 64.416 15.216 5.856 34.128-13.488 42.288-43.2l81.408-296.976.384-1.296c8.16-29.76 2.4-58.56-12.768-64.416zm111.504 16.368a25.872 25.872 0 00-40.896-.192 38.928 38.928 0 00-.192 48.48l93.504 110.88-93.504 109.92A38.784 38.784 0 00631.328 644c4.56 12.912 15.216 21.216 26.976 20.976 7.728.048 15.12-3.6 20.544-10.08l112.704-133.968A37.536 37.536 0 00800 496.736a37.536 37.536 0 00-8.448-24.144zm-333.696 0L232.448 472.64A37.536 37.536 0 00224 496.736c0 9.12 3.024 17.76 8.448 24.192l112.704 133.92a26.736 26.736 0 0020.544 10.176c11.76.192 22.416-8.16 26.976-21.024a38.784 38.784 0 00-6.432-37.44l-93.504-110.016L386.24 385.76a38.928 38.928 0 00-.192-48.48 25.872 25.872 0 00-40.896.144z"/>
</svg>
