<?xml version="1.0" standalone="no"?>
<!DOCTYPE svg PUBLIC "-//W3C//DTD SVG 1.1//EN" "http://www.w3.org/Graphics/SVG/1.1/DTD/svg11.dtd">
<svg class="icon" version="1.1" viewBox="0 0 1024 1024" fill="currentColor" aria-hidden="true">
  <path d="M831.58266311 63.46903666c11.96153401 0 21.94242333 8.46628067 24.00073956 19.61225558l0.3883611 4.27197553v539.70595157c71.57502066 28.35038777 122.06201401 97.09036999 122.06201401 177.28701554C978.03377778 909.94172246 890.61360867 995.53659222 782.72678912 995.53659222a196.51091001 196.51091001 0 0 1-152.39304533-71.65269334l-482.26728846-0.03883576a24.27259221 24.27259221 0 0 1-24.03957533-19.61225444L123.6385189 899.99966777V87.314432a24.07841223 24.07841223 0 0 1 20.03945244-23.49587L148.06645533 63.46903666h683.51620778zM807.15472555 111.23749888H172.45555712v764.80026624H601.71150222a187.22907022 187.22907022 0 0 1-14.21403022-71.69153024c0-105.59548643 87.4201691-191.19035733 195.26815289-191.19035733 8.31093533 0 16.46652643 0.50486955 24.46677333 1.47577401L807.15472555 111.27633579z m34.29231957 625.26198557l-73.98286222 72.42941667-41.43817045-40.54493866-29.5931449 28.97176576 69.05067179 67.57489778 103.57600711-101.36234667-27.61250133-27.06879488z m-351.62248533-75.53630777v71.6915291H245.70053177v-71.6915291h244.12402802z m244.08519111-143.42189511v71.6915291H245.70053177v-71.6915291h488.20921913z m0-286.76611869v215.07458845H245.70053177V230.77516288h488.20921913z"/>
</svg>
