<svg xmlns="http://www.w3.org/2000/svg" class="icon" viewBox="0 0 1024 1024" fill="currentColor" aria-hidden="true">
  <path d="M512 32c265.104 0 480 214.896 480 480S777.104 992 512 992 32 777.104 32 512 246.896 32 512 32zm79.344 144H346.88c-9.792 0-19.2 2.784-28.176 8.304a103.728 103.728 0 00-40.656 48.576A76.704 76.704 0 00272 261.824v452.352c0 11.088 2.784 21.744 8.304 31.92 5.568 10.224 12.48 19.296 20.832 27.312 8.304 7.968 17.28 14.4 26.88 19.296 9.6 4.848 18.432 7.296 26.544 7.296h314.88c9.408 0 19.008-2.016 28.8-6 9.792-3.984 18.768-9.504 26.88-16.608A78.816 78.816 0 00752 716.864V341.6h-93.456a55.68 55.68 0 01-30.048-7.968 69.696 69.696 0 01-21.12-20.304 87.84 87.84 0 01-12.192-26.592 106.368 106.368 0 01-3.84-27.648V176zm40.32 415.104c11.088 0 20.496 3.984 28.176 12 7.68 7.968 11.52 17.76 11.52 29.28a41.76 41.76 0 01-11.52 29.568 37.104 37.104 0 01-28.176 12.336h-240a37.104 37.104 0 01-28.128-12.336 41.76 41.76 0 01-11.52-29.616c0-11.52 3.84-21.264 11.52-29.28a37.584 37.584 0 0128.128-11.952zm0-166.32c11.088 0 20.496 4.128 28.176 12.336 7.68 8.16 11.52 18.048 11.52 29.616 0 11.52-3.84 21.264-11.52 29.28a37.584 37.584 0 01-28.176 11.952h-240a37.584 37.584 0 01-28.128-12 40.608 40.608 0 01-11.52-29.28c0-11.52 3.84-21.36 11.52-29.568a37.104 37.104 0 0128.128-12.336zM633.584 176h-1.92v82.512c0 2.64.528 6.288 1.632 10.944a62.313 62.313 0 004.8 13.632c2.112 4.464 4.8 8.352 7.968 11.664 3.216 3.36 6.96 4.992 11.232 4.992H752v-10.656a40.56 40.56 0 00-1.296-9.312 40.272 40.272 0 00-6.72-12.96 191.328 191.328 0 00-15.648-18.624 754.416 754.416 0 00-27.552-27.6 672.192 672.192 0 00-26.544-23.328 226.272 226.272 0 00-17.616-13.296 49.968 49.968 0 00-12.48-6.288 36 36 0 00-10.56-1.68z"/>
</svg>
