<?xml version="1.0" standalone="no"?>
<!DOCTYPE svg PUBLIC "-//W3C//DTD SVG 1.1//EN" "http://www.w3.org/Graphics/SVG/1.1/DTD/svg11.dtd">
<svg class="icon" version="1.1" viewBox="0 0 1024 1024" fill="currentColor" aria-hidden="true">
  <path d="M817.83466667 75.09333333A131.072 131.072 0 0 1 948.90666667 206.16533333v611.66933334a131.072 131.072 0 0 1-131.072 131.072H206.16533333A131.072 131.072 0 0 1 75.09333333 817.83466667V206.16533333A131.072 131.072 0 0 1 206.16533333 75.09333333h611.66933334zM312.47928853 352.20138667a37.57397333 37.57397333 0 0 0-17.47626666 70.81528853l4.66033813 2.03889813v194.7875552H225.53486187v-194.7875552a37.57397333 37.57397333 0 1 0-30.2921952-2.03889813l4.66033813 2.03889813v194.7875552l-25.34058667 0.0364096a12.81592853 12.81592853 0 0 0-2.18453333 25.26776854l2.9127104 0.36408853 140.53831147-0.03640853c85.3788448-0.87381333 156.92231147-36.00839147 190.30926186-93.97134187a43.87271147 43.87271147 0 0 0 49.69813334-43.39939627c0-12.9251552-5.60696853-24.50318187-14.52714667-32.54954666 11.50520853-19.04184853 28.07125333-35.28021333 48.60586667-47.95050667l9.0294048-5.2064704v137.6256a37.57397333 37.57397333 0 1 0 30.2921952 2.03889707l-4.66033707-2.07530667v-149.0944a240.95402667 240.95402667 0 0 1 60.80284373-13.36206187l13.32565334-0.91022186v194.53269333a37.57397333 37.57397333 0 1 0 30.29219626 2.03889707l-4.66033813-2.03889707v-194.78755627h74.12849813v194.78755627a37.57397333 37.57397333 0 1 0 30.2921952 2.03889707l-4.62392853-2.03889707v-194.78755627l25.30417707-0.03640853a12.81592853 12.81592853 0 0 0 2.18453333-25.26776853l-2.9127104-0.3640896-140.53831147 0.0364096c-85.3788448 0.91022187-156.92231147 36.00839147-190.30926186 93.97134186a43.79989333 43.79989333 0 0 0-35.17098667 75.91253334c-11.50520853 19.07825813-28.07125333 35.31662187-48.60586667 47.9869152l-9.0294048 5.20647146v-137.6256a37.57397333 37.57397333 0 1 0-30.2921952-2.03889813l4.66033707 2.07530667v149.1308096a241.13607147 241.13607147 0 0 1-60.80284373 13.32565333l-13.32565334 0.91022187v-194.53269334a37.57397333 37.57397333 0 0 0-12.8159296-72.81777813z"/>
</svg>
