<?xml version="1.0" standalone="no"?>
<!DOCTYPE svg PUBLIC "-//W3C//DTD SVG 1.1//EN" "http://www.w3.org/Graphics/SVG/1.1/DTD/svg11.dtd">
<svg class="icon" version="1.1" viewBox="0 0 1024 1024" fill="currentColor" aria-hidden="true">
  <path d="M952.832 152H71.168c-21.6 0-39.168 16.128-39.168 36S49.568 224 71.168 224h881.664c21.6 0 39.168-16.128 39.168-36s-17.568-36-39.168-36zM656 813.152V378.848a34.656 34.656 0 0 0-18-30.192 37.056 37.056 0 0 0-36 0 34.608 34.608 0 0 0-18 30.192v434.304c0 19.248 16.128 34.848 36 34.848s36-15.6 36-34.848z m200.928-517.056c-18.48 0.096-34.32 12.096-37.776 28.704h-0.768v566.736a27.024 27.024 0 0 1-8.832 20.208 32.592 32.592 0 0 1-21.84 8.544H260.432c-17.376 0-31.44-12.864-31.536-28.752V324.8h-0.72c-3.36-16.656-19.2-28.752-37.68-28.752-18.576 0-34.416 12.096-37.776 28.752H152v624.192a40.608 40.608 0 0 0 13.248 30.24c8.64 8.064 20.4 12.624 32.736 12.768h651.36c25.776-0.24 46.56-19.392 46.656-42.96V324.704h-0.768c-3.84-16.512-19.824-28.368-38.304-28.464V296v0.096zM360.272 104h303.312c22.32 0 40.416-16.128 40.416-36S685.904 32 663.584 32H360.416C338.096 32 320 48.128 320 68s18.096 36 40.416 36H360.32zM440 812.48V379.328a36.048 36.048 0 0 0-36.336-35.376 35.568 35.568 0 0 0-35.664 35.472v433.056a36.048 36.048 0 0 0 72-0.096z"/>
</svg>
