<svg xmlns="http://www.w3.org/2000/svg" class="icon" viewBox="0 0 1024 1024" fill="currentColor" aria-hidden="true">
  <path d="M627.572 204.8c102.866 1.908 195.957 77.033 195.957 77.033 89.088 196.096 97.512 369.431 98.024 416.721v10.333l-.046 2.095A260.19 260.19 0 01716.987 819.2h-4.562l-2.7-.14-43.194-57.716c76.055-17.361 124.137-88.623 124.137-88.623l-1.257.885-3.677 2.467c-23.552 15.36-129.397 78.801-273.78 78.801s-250.229-63.441-273.78-78.801l-3.678-2.467a76.567 76.567 0 01-1.257-.885s48.082 71.215 124.137 88.576l-43.194 57.763s-.931.093-2.7.093l-4.561.047A260.468 260.468 0 01102.4 711.215V698.554c.465-47.29 8.937-220.625 97.978-416.721 0 0 93.091-75.125 195.957-77.033l10.333 10.892s-109.522 34.024-172.219 93.09c0 0 114.41-73.82 277.504-73.82 163.096 0 277.504 73.82 277.504 73.82-62.696-59.066-172.218-93.09-172.218-93.09l10.333-10.892zm-241.57 273.455c-39.564 0-70.61 36.584-70.61 81.5 0 44.312 31.65 81.502 70.61 81.502 39.563 0 71.214-37.237 71.214-81.501.605-44.917-31.65-81.501-71.215-81.501zm253.765 0c-39.563 0-70.61 36.584-70.61 81.5 0 44.312 31.652 81.502 70.61 81.502 39.564 0 71.215-37.237 71.215-81.501 0-44.917-31.651-81.501-71.215-81.501z"/>
</svg>
