<?xml version="1.0" standalone="no"?>
<!DOCTYPE svg PUBLIC "-//W3C//DTD SVG 1.1//EN" "http://www.w3.org/Graphics/SVG/1.1/DTD/svg11.dtd">
<svg class="icon" version="1.1" viewBox="0 0 1024 1024" fill="currentColor" aria-hidden="true">
  <path d="M627.572364 204.8c102.865455 1.908364 195.956364 77.032727 195.956363 77.032727 89.088 196.096 97.512727 369.431273 98.024728 416.721455v10.333091l-0.046546 2.094545a260.189091 260.189091 0 0 1-204.520727 108.218182h-4.561455l-2.699636-0.139636-43.194182-57.716364c76.055273-17.361455 124.136727-88.622545 124.136727-88.622545l-1.256727 0.884363-3.677091 2.466909c-23.552 15.36-129.396364 78.801455-273.780363 78.801455s-250.228364-63.441455-273.780364-78.801455l-3.677091-2.466909a76.567273 76.567273 0 0 1-1.256727-0.884363s48.081455 71.214545 124.136727 88.576l-43.194182 57.762909s-0.930909 0.093091-2.699636 0.093091l-4.561455 0.046545A260.468364 260.468364 0 0 1 102.4 711.214545v-1.024-11.636363c0.465455-47.290182 8.936727-220.625455 97.978182-416.721455 0 0 93.090909-75.124364 195.956363-77.032727l10.333091 10.891636s-109.521455 34.024727-172.218181 93.090909c0 0 114.408727-73.821091 277.504-73.82109 163.095273 0 277.504 73.821091 277.504 73.82109-62.696727-59.066182-172.218182-93.090909-172.218182-93.090909l10.333091-10.891636z m-241.570909 273.454545c-39.563636 0-70.609455 36.584727-70.609455 81.501091 0 44.311273 31.650909 81.501091 70.609455 81.501091 39.563636 0 71.214545-37.236364 71.214545-81.501091 0.605091-44.916364-31.650909-81.501091-71.214545-81.501091z m253.765818 0c-39.563636 0-70.609455 36.584727-70.609455 81.501091 0 44.311273 31.650909 81.501091 70.609455 81.501091 39.563636 0 71.214545-37.236364 71.214545-81.501091 0-44.916364-31.650909-81.501091-71.214545-81.501091z"/>
</svg>
