<?xml version="1.0" standalone="no"?>
<!DOCTYPE svg PUBLIC "-//W3C//DTD SVG 1.1//EN" "http://www.w3.org/Graphics/SVG/1.1/DTD/svg11.dtd">
<svg class="icon" version="1.1" viewBox="0 0 1024 1024" fill="currentColor" aria-hidden="true">
  <path d="M147.71692999 718.9578331l6.60214556-0.19417998c3.8059429 0 7.61188466 0.19418112 11.34015488 0.58254222l7.30119624 0.97090333 4.93219043 0.97090332 7.92257423 2.01948046 8.1555911 2.83503844 6.99050667 2.95154688 8.15559111 4.27197668 7.76723001 4.89335466 8.46628068 6.52447289c4.8545189 4.15546823 9.32067555 8.73813333 13.3596342 13.67032377l6.52447289 8.81580601c2.25249621 3.41758066 4.34964821 6.99050667 6.21378446 10.67994112l3.72827022 8.27209955 2.60202155 7.3011951 2.33016889 8.4274449 1.16508444 6.291456c0.89323179 5.47589689 1.35926557 11.10713799 1.35926557 16.85488754 0 58.720256-48.50634866 106.33337401-108.35285333 106.33337401C94.51140779 931.4304 45.96622222 883.81728199 45.96622222 825.09702599c0-51.380224 37.12735801-94.25533155 86.48810155-104.15854933l3.10689223-0.54370532c2.4855131-0.42719801 4.97102734-0.77672334 7.53421312-1.048576l4.62150087-0.38836224z m364.28307001-0.19417998c8.388608 0 16.58303488 0.93206755 24.42793757 2.71852999l7.7283931 2.05831623 4.194304 1.35926443 7.06817934 2.71853113 4.00012288 1.86413511c1.55344555 0.73788643 3.10689223 1.51460978 4.5826651 2.33016889l6.36912868 3.68943331 8.31093532 5.78658646 4.23314091 3.41758066 5.55356843 5.04870001 5.04870001 5.32055154 4.81568199 5.74775069 3.10689224 4.27197553 4.93219043 7.76723001c1.39810133 2.40784157 2.71852999 4.93219043 3.96128711 7.49537622l2.33016889 5.43706112 3.18456377 8.93231445 1.94180778 7.26235932 1.16508445 6.21378333c0.93206755 5.51473266 1.39810133 11.1459749 1.39810133 16.89372444 0 58.720256-48.54518557 106.33337401-108.35285333 106.33337401s-108.35285333-47.61311801-108.35285333-106.33337401l0.3883611-8.54395221 0.97090446-8.31093533 0.93206756-4.97102734 2.21366044-8.62162489 1.048576-3.18456377 2.60202155-6.87399822 2.33016889-5.20404423 3.10689223-5.9030949 4.27197553-6.87399822 5.28171691-7.22352355 7.06817821-7.96141 5.59240533-5.28171576 4.38848512-3.72827023 7.57304889-5.47589689 3.88361444-2.48551424 6.79632668-3.76710599 6.75748978-3.18456377 4.93219043-1.94180778 7.53421312-2.4855131 6.09727488-1.55344669c7.88373845-1.82529934 16.1170011-2.7573669 24.58328178-2.75736576z m328.90333867 3.80594176l5.20404423-1.28159289 8.54395221-1.51460978 7.26235932-0.7767222 7.76723002-0.23301689 5.55356956 0.11650845 8.07791844 0.69905066 7.88373845 1.28159289 4.03895865 0.89323065c47.53544533 11.26248334 82.79866823 53.24435911 82.79866823 103.34299022 0 58.720256-48.50634866 106.33337401-108.35285333 106.33337401-59.80766777 0-108.35285333-47.61311801-108.35285334-106.33337401l0.3883611-8.54395221 1.00974024-8.31093533 0.93206755-5.00986311 1.66995399-6.71865401 1.24275712-4.15546823 2.79620267-7.49537621 3.18456377-6.87399822 2.95154802-5.47589689 4.03895864-6.40796445a107.57612999 107.57612999 0 0 1 19.1462218-21.32104533l5.6312411-4.46615666 7.37886777-5.04870001 7.41770467-4.27197554 6.56330866-3.10689224 8.6604618-3.33990912 6.56330866-1.98064355zM802.26137088 92.5696a93.20675555 93.20675555 0 0 1 93.20675555 93.20675555l0.03883691 497.95709156a148.19874133 148.19874133 0 0 0-25.82603889-2.25249621c-74.48773177 0-136.15953579 55.26383843-144.62581533 126.76118755h-68.42929379c-7.22352355-60.89508067-53.01134222-110.02280733-112.46948466-123.26593422v-18.95204068l37.86524444-0.23301688 20.19479666-0.3883611c23.4570331-0.89323179 43.14696021-4.66033778 59.03094556-11.26248335 15.92282112-6.56330866 29.63198066-16.66070755 41.16631666-30.29219555 19.80643555-24.117248 29.70965333-53.0890149 29.70965334-86.91529956 0-20.66083043-3.68943445-40.85562823-11.06830223-60.58439111a102.06139733 102.06139733 0 0 0-51.84625777-56.00172601 148.58710243 148.58710243 0 0 0-44.89458688-13.51497956l-11.84502557-1.16508444-15.26260622-0.89323065-18.68018688-0.58254222-22.09776868-0.27185379-12.3110582-0.03883578V305.08100267h161.75255665V226.70965533h-161.75255665V163.44556999h-56.70077668v63.26408534l-22.64147399 0.11650844-20.15596089 0.46603378-17.55393934 0.69905066-7.84490155 0.50487069-13.74799644 1.16508444-11.18481067 1.47577287a97.40105955 97.40105955 0 0 0-50.60350179 23.88423112 130.83898311 130.83898311 0 0 0-32.81654443 46.09850822 138.60621312 138.60621312 0 0 0-12.11687822 56.00172602c0 21.51522645 5.04869888 41.94304 15.22376931 61.24460486 13.35963534 25.01047979 32.46702023 42.13722112 57.36099158 51.380224 14.2917029 5.28171577 27.76784555 8.54395221 40.42843022 9.86438202l9.12649444 0.73788643 19.301566 0.77672334 36.31179776 0.46603378h10.95179378v106.02268445h-166.60707556v78.44901888h166.60707556v17.47626666c-63.14757689 10.56343267-112.5859931 61.24460601-120.08136932 124.66403556H298.94489088c-8.46628067-71.45851221-70.13808355-126.72235179-144.62581533-126.72235065-6.40796445 0-12.73825621 0.3883611-18.91320376 1.16508444V185.77635555a93.20675555 93.20675555 0 0 1 93.20675555-93.20675555h573.64874354z m-258.14387598 389.021696c23.96190379 0.89323179 40.77795555 3.72827022 50.48699221 8.54395221 18.874368 9.70903666 28.311552 25.04931555 28.311552 46.137344 0 11.41782755-3.57292601 21.6317349-10.71877689 30.60288512a48.234496 48.234496 0 0 1-27.30181177 17.47626667c-4.66033778 1.048576-10.17507043 1.86413511-16.62187178 2.40784157l-14.13635755 0.7767222-10.01972622 0.11650844v-106.02268444z m-56.70077668-176.51029333v98.79916088l-19.18505756-0.69905066-9.12649444-0.58254222-6.21378332-0.69905067c-30.408704-5.28171577-45.63247445-21.28220957-45.63247445-48.07915179 0-27.69017401 13.59265223-43.03045177 40.77795555-46.09850709 4.27197667-0.54370645 8.93231445-1.00974023 13.98101333-1.39810133l16.31118222-0.93206756 9.12649444-0.31068956z"/>
</svg>
