<?xml version="1.0" standalone="no"?>
<!DOCTYPE svg PUBLIC "-//W3C//DTD SVG 1.1//EN" "http://www.w3.org/Graphics/SVG/1.1/DTD/svg11.dtd">
<svg class="icon" version="1.1" viewBox="0 0 1024 1024" fill="currentColor" aria-hidden="true">
  <path d="M167.90000029 62A105.90000029 105.90000029 0 0 0 62 167.90000029v688.19999942A105.90000029 105.90000029 0 0 0 167.90000029 962h688.19999942A105.8625 105.8625 0 0 0 962 856.09999971V167.90000029A105.90000029 105.90000029 0 0 0 856.09999971 62z m421.9875 495.26250029h168.44999942a42.11250029 42.11250029 0 0 1 3.825 84.0375l-3.825 0.18749971h-66.74999942l143.06249971 143.06249971a42.11250029 42.11250029 0 0 1-56.54999971 62.28750058l-3.00000058-2.73750029L631.99999971 701v66.825a42.11250029 42.11250029 0 0 1-84.0375 3.825l-0.18749971-3.825V599.37499971c0-21.97500029 16.80000029-40.01249971 38.25-41.9625zM179.48750029 188.97499971a42.11250029 42.11250029 0 0 1 56.54999971-2.73749942l2.99999971 2.73749942L382.13749971 332v-66.75000029a42.11250029 42.11250029 0 0 1 84.0375-3.86249942l0.18750058 3.825v168.48749971c0 21.9375-16.80000029 39.97500029-38.25 41.92499971l-3.86250029 0.18750058H255.79999971a42.11250029 42.11250029 0 0 1-3.825-84.07500029l3.825-0.15000029h66.78750058L179.48750029 248.525a42.11250029 42.11250029 0 0 1 0-59.55000029z"/>
</svg>
