<svg xmlns="http://www.w3.org/2000/svg" class="icon" viewBox="0 0 1024 1024" fill="currentColor" aria-hidden="true">
  <path d="M583.182 78.916l3.058 2.512L802.8 294.967a21.336 21.336 0 012.549 27.488l-2.549 3.022-203.89 200.977 159.362.073a39.81 39.81 0 0127.926 11.433l3.422 3.895L955.9 757.578c6.444 8.374 8.81 17.95 7.9 27.052l.11 2.767v86.289c0 19.77-15.037 36.118-34.443 38.52l-4.952.292H93.227a39.212 39.212 0 01-39.067-33.97l-.327-4.842v-86.29c0-.946.036-1.856.109-2.803-.728-7.245.655-14.818 4.551-21.845l3.386-5.17 166.243-215.723c6.408-8.265 15.838-13.617 26.142-15l5.206-.328 97.467-.036L245.89 416.973a21.336 21.336 0 01-2.549-27.525l2.549-2.986L555.292 81.428a22.137 22.137 0 0127.89-2.512zm341.333 794.77V819.91H93.227v53.776h831.288zM758.272 565.339H559.479l-65.608 64.699h172.505c4.988 0 9.758 1.674 13.58 4.696l2.695 2.476 39.394 43.145a21.481 21.481 0 01-12.597 35.68l-3.678.328H311.972a21.59 21.59 0 01-18.496-33.132l2.257-2.876 39.358-43.145a21.991 21.991 0 0112.598-6.845l3.64-.291 110.611-.036-65.645-64.735-136.825.072-141.266 183.137h781.262L758.272 565.375zM635.465 263.364L491.65 405.213l-65.61-64.699-26.578 26.215 92.115 90.767.073-.073.073.073 170.284-167.954-26.542-26.178z"/>
</svg>
