<svg xmlns="http://www.w3.org/2000/svg" class="icon" viewBox="0 0 1024 1024" fill="currentColor" aria-hidden="true">
  <path d="M512.102 770.219v57.514l-.273 4.165-.341 2.389c-8.43 42.564-96.973 87.313-221.355 87.313-126.668 0-216.166-46.421-221.627-89.702l-.24-4.165V770.22c37.957 40.004 122.983 67.925 221.901 67.925 65.298 0 124.553-12.151 168.175-31.915l8.875-4.232 10.308-5.496 8.022-4.847 7.782-5.256 6.349-4.813c2.457-1.98 4.779-3.96 6.963-5.973l5.461-5.393zM594.091 102.4c199.611 0 361.642 166.127 361.642 370.825 0 204.697-162.03 370.824-361.642 370.824-17.92 0-35.499-1.331-52.702-3.891l.853-6.178.307-6.247V484.66c-41.403-62.737-125.542-94.378-252.382-94.89-16.725-.069-33.109.785-49.015 2.286C277.265 226.372 421.649 102.4 594.091 102.4zm-81.989 563.541v57.515c0 2.867-.375 5.769-1.126 8.67l-1.707 5.086-2.389 5.051-2.321 3.823-4.096 5.564-3.755 4.3-4.437 4.336-4.71 4.096-7.34 5.632-4.539 3.072-5.94 3.72-11.024 6.076-13.073 6.144-10.991 4.437-14.302 5.052c-35.601 11.469-79.974 18.774-130.185 18.774-126.668 0-216.166-46.422-221.627-89.669l-.273-4.164v-57.515c37.956 40.005 122.982 67.926 221.9 67.926 21.402 0 42.155-1.332 61.952-3.755l18.262-2.662c18.602-3.072 36.181-7.168 52.429-12.186l16.179-5.461 9.352-3.584 9.899-4.199 10.001-4.847 9.455-5.051 3.823-2.253 7.987-5.12 7.066-5.018 3.31-2.594 6.76-5.803 5.46-5.393zm0-104.345v57.583c0 3.242-.477 6.52-1.433 9.83a42.394 42.394 0 01-1.946 5.257l-1.536 3.106-1.911 3.31c-2.56 4.097-5.837 8.193-9.797 12.22-1.98 2.048-4.198 4.096-6.587 6.144l-6.383 5.018-8.67 5.94-5.222 3.208-8.978 4.95-8.533 4.163-17.817 7.407-12.869 4.472-13.755 4.096-7.407 1.98-14.507 3.345-16.043 3.037-12.083 1.844-14.404 1.775-24.508 1.98c-8.977.477-18.159.75-27.546.75-126.668 0-216.166-46.421-221.627-89.668l-.273-4.164v-57.583c37.956 40.004 122.982 67.925 221.9 67.925 94.447 0 176.23-25.395 216.474-62.566l5.461-5.36zm312.628-140.63c-52.941 0-87.006 41.643-87.006 113.323 0 71.236 33.655 114.244 87.006 114.244 53.316 0 86.835-43.315 86.835-114.346 0-71.68-33.929-113.22-86.835-113.22zm-187.665.171c-46.285 0-77.176 26.522-80.316 66.765l-.24 8.021h52.771v-1.365c0-15.633 10.684-26.692 25.737-26.692 14.916 0 23.517 9.113 23.517 20.753 0 11.946-6.007 22.255-19.285 35.225l-79.326 76.595v42.121h156.74v-47.787h-81.92v-1.194l49.22-47.582 6.76-7.032c10.854-11.946 23.62-30.105 23.62-52.292 0-39.117-29.424-65.536-77.278-65.536zM302.319 608.53l-12.152.17c-6.28 0-12.458-.136-18.568-.34l-14.677-.752c-112.709-7.543-188.655-52.258-188.655-92.74 0-36.113 60.177-75.537 152.849-89.02l14.472-1.843 14.848-1.467 17.272-1.059 9.625-.34c4.233-.103 8.534-.172 12.834-.172 130.8 0 221.935 49.494 221.935 93.867 0 43.008-85.504 90.795-209.783 93.73zm522.41-138.888c16.146 0 27.751 20.172 27.751 64.648 0 44.373-11.605 65.536-27.75 65.536s-27.921-21.163-27.921-65.536c0-44.476 11.776-64.648 27.92-64.648zM724.515 238.933c-32.7 0-56.08 27.887-56.08 68.165 0 40.482 23.38 68.369 56.08 68.369 27.819 0 49.323-19.388 53.93-50.62h-20.41c-3.79 18.466-16.59 29.184-33.52 29.184-22.425 0-35.84-18.671-35.84-46.933s13.415-46.763 35.84-46.763c16.93 0 29.696 10.752 33.52 29.218h20.377c-4.574-31.232-26.078-50.62-53.897-50.62zm-177.937 2.765H467.73v131.175h78.848v-20.685h-59.733v-35.499h57.037v-20.65h-57.003v-33.656h59.733v-20.685zm70.963 0h-49.288v131.175h19.114v-51.678h25.737l22.767 51.712h22.425l-25.736-54.511c14.848-5.53 21.948-19.559 21.948-36.933 0-22.903-12.152-39.73-36.967-39.73zm.17 20.685c11.845 0 17.545 7.782 17.545 19.046s-5.7 19.013-17.544 19.013h-30.379v-38.06h30.379z"/>
</svg>
