<?xml version="1.0" standalone="no"?>
<!DOCTYPE svg PUBLIC "-//W3C//DTD SVG 1.1//EN" "http://www.w3.org/Graphics/SVG/1.1/DTD/svg11.dtd">
<svg class="icon" version="1.1" viewBox="0 0 1024 1024" fill="currentColor" aria-hidden="true">
  <path d="M512 32c265.08799969 0 480 214.91200031 480 480 0 265.08799969-214.91200031 480-480 480-265.08799969 0-480-214.91200031-480-480C32 246.91200031 246.91200031 32 512 32zM211.616 423.16800031c-7.55200031 12.48-11.616 25.632-11.616 39.23199938 0 30.40000031 20.256 58.62400031 54.88000031 81.984l-15.552 103.776 74.88-73.75999969c45.984 17.59999969 102.94399969 29.31199969 165.504 32.64L512 704l32.19199969-96.54400031c63.168-2.52799969 120.96-13.56799969 168.03200062-30.65599969l72.44799938 71.35999969-14.784-98.55999938c39.61600031-24.288 63.04000031-54.49600031 63.04000031-87.20000062 0-13.56799969-4.00000031-26.71999969-11.58400031-39.168-37.248 61.344-159.61600031 106.368-304.86399938 106.368-145.27999969 0-267.67999969-45.024-304.86400031-106.43199938z"/>
</svg>
