<svg xmlns="http://www.w3.org/2000/svg" class="icon" viewBox="0 0 1024 1024" fill="currentColor" aria-hidden="true">
  <path d="M513.282 49.384a22.253 22.253 0 0119.961-1.903l3.767 1.942L909.993 284.38l2.214 1.981 2.097 2.447 1.475 2.33 1.282 2.874 1.204 4.699.233 3.03-.31 3.883-.622 2.64-1.515 3.807-1.514 2.485-1.981 2.447-1.282 1.281-1.708 1.398h-.195l-1.281 1.01-360.75 227.114.04 352.477L874.07 704.16l.815-235.58.388-3.961a22.253 22.253 0 0143.769.155l.35 4-.894 248.163-.35 3.845a22.292 22.292 0 01-7.34 12.894l-3.106 2.252-371.119 222.764-3.495 1.71a22.292 22.292 0 01-29.865-16.933l-.31-3.884-.078-391.78-360.633-227.113a22.253 22.253 0 01-3.456-34.991l3.456-2.68 371.08-233.638zm11.883 45.127l-329.33 207.385 320.67 201.948L853.758 301.43 525.204 94.511zm-393.37 207.385v414.965c0 7.806 4.116 15.068 10.796 19.068l371.118 222.764a22.253 22.253 0 0033.67-19.068V524.622a22.253 22.253 0 00-10.796-19.069L165.503 282.79a22.253 22.253 0 00-33.709 19.069zm669.69 224.629v115.81a11.146 11.146 0 01-5.67 9.708l-133.48 75.498a11.107 11.107 0 01-16.583-9.71V610.956c0-3.845 1.942-7.38 5.165-9.399l133.48-84.43c7.379-4.66 17.088.622 17.088 9.399z"/>
</svg>
