<?xml version="1.0" standalone="no"?>
<!DOCTYPE svg PUBLIC "-//W3C//DTD SVG 1.1//EN" "http://www.w3.org/Graphics/SVG/1.1/DTD/svg11.dtd">
<svg class="icon" version="1.1" viewBox="0 0 1024 1024" fill="currentColor" aria-hidden="true">
  <path d="M512 74.66666666c265.08799969 0 480 214.91200031 480 480 0 16.224-0.79999969 32.256-2.36800031 48.06400031H34.36800031C32.79999969 586.92266666 32 570.89066666 32 554.66666666 32 289.57866697 246.91200031 74.66666666 512 74.66666666z m279.77599969 200.22400031a48 48 0 0 0-63.36-3.96800062l-4.54399969 3.96800062-203.64799969 203.64799969a48 48 0 0 0 63.36 71.87200031l4.54399969-3.96800062 203.64799969-203.64799969a48 48 0 0 0 0-67.90399969zM136.95999969 957.77066666v-100.25599969h101.98400062v-62.4H136.95999969v-54.336H249.60000031V674.66666666H56v283.104h80.95999969z m222.27200062-283.104h-80.96000062v182.23999969c0 64.54399969 48.70399969 105.76000031 121.44 105.76000031 72.768 0 121.44-41.21599969 121.44-105.76000031V674.66666666h-80.95999969v173.02399969c0 29.82400031-14.304 46.11199969-40.48000031 46.11200062-26.14399969 0-40.48000031-16.28800031-40.47999938-46.08V674.66666666z m389.184 216.96H640.32000031v-216.96h-80.96000062v283.104h189.05600062V891.62666666z m219.58399969 0h-108.096v-216.96h-80.95999969v283.104h189.05599969V891.62666666z"/>
</svg>
