<?xml version="1.0" standalone="no"?>
<!DOCTYPE svg PUBLIC "-//W3C//DTD SVG 1.1//EN" "http://www.w3.org/Graphics/SVG/1.1/DTD/svg11.dtd">
<svg class="icon" version="1.1" viewBox="0 0 1024 1024" fill="currentColor" aria-hidden="true">
  <path d="M76.88888853 677.1120352c59.27367147 62.36842667 192.1661152 105.87704853 346.7218496 105.8770496 124.08149333 0 234.18197333-28.0348448 303.46808854-71.36142294v71.36142294h40.7779552c-20.02488853 64.48014187-155.7936352 130.05255147-344.24604374 130.0525504-199.22944 0-339.54929813-73.29109333-346.46698666-141.12085334L76.88888853 766.71431146V677.1484448z m0-162.52928c59.27367147 62.36842667 192.1661152 105.84064 346.7218496 105.84064 62.47765333 0 121.4236448-7.09973333 173.37912854-19.6608v52.21034666l129.97973332-0.10922666v19.15107626c-57.01632 43.7270752-166.24298667 78.42474667-303.35886186 78.42474667-199.22944 0-339.54929813-73.2546848-346.46698666-141.01162667l-0.25486294-5.20647146v-89.6386848z m563.4639648 95.0272v-86.6531552l130.01614187-0.03640854v-130.01614293h86.72597332l-0.03640852 129.97973333 130.05255146 0.0364096v86.68956374h-130.05255146v130.05255146h-86.65315521l-0.03640959-130.08896-129.97973333 0.03640854zM76.88888853 351.94424853c59.27367147 62.36842667 192.1661152 105.91345813 346.7218496 105.91345813 124.08149333 0 234.18197333-28.0348448 303.46808854-71.36142186l-0.07281814 93.0247104-129.97973334 0.07281813v87.74542187c-49.84376853 12.81592853-108.49848853 20.60743147-173.41553706 20.60743146-199.22944 0-339.54929813-73.29109333-346.46698666-141.0480352l-0.25486294-5.20647146v-89.74791147zM423.61073813 132.8355552c204.39950187 0 346.79466667 77.07761813 346.79466666 146.29091626 0 69.17688853-142.3951648 146.25450667-346.79466666 146.25450667-204.3266848 0-346.72184853-77.07761813-346.7218496-146.25450667C76.88888853 209.94958186 219.2476448 132.8355552 423.61073813 132.8355552z"/>
</svg>
