<?xml version="1.0" standalone="no"?>
<!DOCTYPE svg PUBLIC "-//W3C//DTD SVG 1.1//EN" "http://www.w3.org/Graphics/SVG/1.1/DTD/svg11.dtd">
<svg class="icon" version="1.1" viewBox="0 0 1024 1024" fill="currentColor" aria-hidden="true">
  <path d="M666.29601621 489.3196891h91.14844046l184.31635912-158.7233371c-7.96140999-18.75785955-17.08790557-37.01084957-27.37948445-54.64246045l-244.27937223 210.06472534-3.84477866 3.30107221zM534.48612978 45.96622222v74.56540445l75.03143822-64.77869512A500.86980267 500.86980267 0 0 0 534.48612978 45.96622222z m385.83713223 443.35346688l53.16668644-45.63247331a453.91689955 453.91689955 0 0 0-14.95191666-65.16705736l-129.09135645 110.99371179 90.87658667-0.19418112M768.12439666 122.08507221l-233.63826688 200.58870557v78.48785579l281.87276288-242.64825402c-15.26260622-13.20428999-31.37960733-25.36000512-48.234496-36.42830734m-103.84785977-51.30255132L534.52496555 182.51411911v78.41018311l190.29712668-164.00505401a482.50030421 482.50030421 0 0 0-60.50671957-26.2144m224.20108401 165.71384491c-11.65084445-15.80631267-24.19492067-30.91357355-37.67106446-45.16644067l-316.32042666 271.77536512v26.29207153h60.27370268l293.71778844-252.90099598M490.44593778 45.96622222c-257.48366222 12.27222243-456.20823267 230.60904733-443.93600911 487.70434845a465.64541667 465.64541667 0 0 0 98.33312712 264.6295131l345.3698651-296.90235222V45.96622222h0.23301689z m29.98150599 487.47133156l-346.8068022 298.14510933A465.1793829 465.1793829 0 0 0 512.3883611 978.03377778C762.64849977 978.03377778 966.38293333 780.8238171 978.03377778 533.43755378H520.42744377"/>
</svg>
