<svg xmlns="http://www.w3.org/2000/svg" class="icon" viewBox="0 0 1024 1024" fill="currentColor" aria-hidden="true">
  <path d="M807.434 618.756l94.25-94.207c104.016-104.016 97.963-278.554-12.99-389.507-110.512-110.91-285.095-116.521-389.11-12.55l-94.251 94.251c-26.026 26.026-24.656 69.639 3.225 97.52 27.838 27.838 71.495 29.208 97.521 3.226l94.25-94.25c52.009-52.45 138.836-49.667 194.556 6.053 55.233 55.234 58.061 142.503 6.053 194.51l-94.295 94.252c-25.982 25.982-24.568 69.594 3.27 97.476 27.838 27.838 71.495 29.252 97.52 3.226zm-436.479 34.377c-27.837-27.838-29.251-71.494-3.27-97.476l188.546-188.502c25.982-25.982 69.639-24.612 97.476 3.27 27.838 27.838 29.252 71.495 3.27 97.476L468.476 656.36c-26.512 26.026-70.125 24.612-97.52-3.226zm-53.422-147.142l-94.25 94.206c-52.008 52.008-49.224 139.277 6.053 194.51 55.676 55.676 142.547 58.504 194.555 6.054l94.251-94.25c25.982-25.982 69.639-24.612 97.52 3.225 27.838 27.838 29.252 71.495 3.226 97.52l-94.25 94.252c-104.017 103.971-278.599 98.404-389.552-12.55C24.088 778.005 18.52 603.467 122.536 499.451l94.251-94.207c26.026-26.026 69.639-24.612 97.52 3.226 27.839 27.838 29.253 71.494 3.226 97.476z"/>
</svg>
