<?xml version="1.0" standalone="no"?>
<!DOCTYPE svg PUBLIC "-//W3C//DTD SVG 1.1//EN" "http://www.w3.org/Graphics/SVG/1.1/DTD/svg11.dtd">
<svg class="icon" version="1.1" viewBox="0 0 1024 1024" fill="currentColor" aria-hidden="true">
  <path d="M352.699733 136.533333c11.195733 0 20.48 8.192 22.391467 18.944l0.375467 4.130134-0.034134 23.108266h273.066667L648.533333 159.607467c0-11.332267 8.055467-20.753067 18.670934-22.698667l4.096-0.375467H716.8c11.1616 0 20.48 8.192 22.391467 18.944l0.341333 4.130134v23.108266h159.300267c11.195733 0 20.48 8.192 22.391466 18.944l0.375467 4.130134v692.701866a23.005867 23.005867 0 0 1-18.670933 22.7328l-4.096 0.375467H125.166933a22.869333 22.869333 0 0 1-22.391466-18.944L102.4 898.491733V205.824c0-11.332267 8.055467-20.753067 18.670933-22.698667l4.096-0.375466h159.232l0.034134-23.108267c0-11.332267 8.055467-20.753067 18.670933-22.698667L307.2 136.533333h45.499733z m523.400534 277.0944H147.899733v461.824h728.200534v-461.824z m-523.400534 253.952v92.398934h-136.533333v-92.3648h136.533333z m227.566934 0v92.398934h-136.533334v-92.3648h136.533334z m-227.566934-184.661333v92.330667h-136.533333v-92.3648h136.533333z m227.566934 0v92.330667h-136.533334v-92.3648h136.533334z m227.566933 0v92.330667h-136.533333v-92.3648h136.533333z"/>
</svg>
