<?xml version="1.0" standalone="no"?>
<!DOCTYPE svg PUBLIC "-//W3C//DTD SVG 1.1//EN" "http://www.w3.org/Graphics/SVG/1.1/DTD/svg11.dtd">
<svg class="icon" version="1.1" viewBox="0 0 1024 1024" fill="currentColor" aria-hidden="true">
  <path d="M692.33322667 821.76682667v1.6384a126.44807147 126.44807147 0 0 0 127.3218848 125.46503146A129.47000853 129.47000853 0 0 0 948.90666667 818.3808a126.48448 126.48448 0 0 0-127.46752-125.46503147 122.11541333 122.11541333 0 0 0-83.33994667 30.72910294 26.76053333 26.76053333 0 0 0-9.10222187-10.92266667l-105.6950048-52.64725333c9.46631147-17.91317333 14.38151147-37.8652448 14.41792-58.10858667a102.89152 102.89152 0 0 0-1.8204448-23.59296l47.2223296-28.83584c4.66033813-1.56558187 6.66282667-5.82542187 8.30122667-9.28426667l0.72817707-1.60199146c14.05383147 16.67527147 34.5884448 26.57848853 56.43377813 27.23384853 40.23182187 0 72.81777813-32.51313813 72.81777813-72.59932373a72.70855147 72.70855147 0 0 0-72.81777813-72.5993248c-40.19541333 0-72.78136853 32.51313813-72.78136853 72.5993248 0.36408853 6.18951147 1.56558187 12.3062048 3.64088853 18.13162666a19.26030187 19.26030187 0 0 0-14.38151147 1.82044374l-41.87022186 25.37699626a129.2515552 129.2515552 0 0 0-92.84266667-61.71306666v-112.50346667a127.2854752 127.2854752 0 0 0 107.91594667-107.62467627 127.13984 127.13984 0 0 0-107.9523552-143.96074666 127.43111147 127.43111147 0 0 0-144.39765334 107.62467626 127.13984 127.13984 0 0 0 107.9523552 143.96074667v112.50346667a129.2515552 129.2515552 0 0 0-92.84266666 61.60384v-0.10922667a1.7840352 1.7840352 0 0 0-1.8204448-1.71121813l-47.3315552-27.19744a6.7356448 6.7356448 0 0 0-5.46133334-1.8204448c1.4563552-4.66033813 2.1117152-9.50272 1.8204448-14.3815104A72.74496 72.74496 0 0 0 275.34222187 420.7229152c-40.26823147 0.03640853-72.81777813 32.5859552-72.81777707 72.70855147s32.65877333 72.63573333 72.8905952 72.5993248a70.85169813 70.85169813 0 0 0 56.43377813-27.27025814l1.82044374 1.8204448 47.33155626 27.27025707c2.8034848 1.4563552 5.97105813 2.1117152 9.10222187 1.8204448a101.94488853 101.94488853 0 0 0-5.46133333 32.65877333c-0.4733152 19.4787552 4.00497813 38.77546667 12.9615648 56.10609814a6.4079648 6.4079648 0 0 1-3.6408896 1.82044373l-109.44512 54.4312896-5.46133334 5.46133333A125.21016853 125.21016853 0 0 0 202.5244448 694.77262187 127.2854752 127.2854752 0 0 0 75.09333333 821.87605333 127.2854752 127.2854752 0 0 0 202.59726187 948.90666667c70.41479147 0 127.43111147-56.94350187 127.43111146-127.13984a124.26353813 124.26353813 0 0 0-25.48622186-76.24021334l107.40622186-54.43128853c1.8204448 0 3.67729813-1.8204448 5.46133334-3.6408896a119.05706667 119.05706667 0 0 0 76.45866666 41.76099627v58.07217706a74.12849813 74.12849813 0 0 0-54.79537813 70.8152896 73.07264 73.07264 0 0 0 143.81511147 17.8403552 72.81777813 72.81777813 0 0 0-52.5744352-88.6556448v-58.07217706a126.6665248 126.6665248 0 0 0 72.81777706-36.29966294l107.40622294 54.4312896c1.4563552 1.41994667 3.4588448 2.07530667 5.46133333 1.82044374a123.79022187 123.79022187 0 0 0-23.66577813 72.5993248z"/>
</svg>
