<svg xmlns="http://www.w3.org/2000/svg" class="icon" viewBox="0 0 1024 1024" fill="currentColor" aria-hidden="true">
  <path d="M610.453 48.716a70.298 70.298 0 00-80.153-7.584c-8.32 4.704-15.679 11.04-21.662 18.687L300.142 327.637h92.153l172.594-221.742 55.42 46.396-138.933 175.346h92.728L676.112 198.88l123.702 103.575-21.47 25.182h21.598c21.47-.032 42.813 3.2 63.355 9.664a75.482 75.482 0 007.04-49.276 74.17 74.17 0 00-25.022-42.621L610.453 48.716zM151.994 364.53c0-9.79 3.808-19.198 10.56-26.077 6.719-6.944 15.902-10.816 25.437-10.816h40.157l57.275-73.818H187.96c-28.637 0-56.123 11.647-76.346 32.414A112.183 112.183 0 0080 364.53V807.44c0 48.956 18.974 95.896 52.732 130.517A177.778 177.778 0 00259.986 992h539.956a142.197 142.197 0 00101.816-43.229 149.556 149.556 0 0042.173-104.407V549.092a149.556 149.556 0 00-42.173-104.408 142.197 142.197 0 00-101.816-43.229h-611.95c-9.536 0-18.72-3.903-25.47-10.815a37.405 37.405 0 01-10.528-26.11zm539.957 332.198h71.994c9.535 0 18.687 3.871 25.47 10.815 6.72 6.911 10.527 16.319 10.527 26.078 0 9.791-3.808 19.198-10.559 26.11a35.517 35.517 0 01-25.438 10.815h-71.994a35.517 35.517 0 01-25.47-10.815 37.373 37.373 0 01-10.527-26.11c0-9.791 3.807-19.167 10.559-26.078 6.72-6.944 15.903-10.815 25.438-10.815z"/>
</svg>
