<svg xmlns="http://www.w3.org/2000/svg" class="icon" viewBox="0 0 1024 1024" fill="currentColor" aria-hidden="true">
  <path d="M512 32c265.088 0 480 214.912 480 480 0 265.088-214.912 480-480 480-265.088 0-480-214.912-480-480C32 246.912 246.912 32 512 32zm-8.544 620.192c-15.424 0-28.064 4.448-38.56 13.28-10.528 8.832-15.424 20.16-15.424 34.08 0 13.888 4.896 25.248 15.424 34.08a57.92 57.92 0 0038.56 13.888c15.424 0 28.032-4.416 38.56-13.248 10.528-8.832 16.128-20.832 16.128-34.72 0-13.888-5.6-25.28-15.424-34.08-10.528-8.832-23.84-13.28-39.264-13.28zM516.064 288c-51.872 0-92.544 13.248-122.688 39.776-30.848 26.496-45.568 63.104-45.568 109.824h79.936c0-26.528 5.6-47.36 17.504-61.856 13.344-17.696 35.072-25.888 65.92-25.888 23.84 0 42.752 5.696 56.096 17.664 12.608 12 19.616 28.416 19.616 49.248 0 15.776-6.304 30.944-18.912 44.8l-8.416 8.864c-45.6 36.608-72.928 63.104-82.048 80.16-9.792 17.024-14.016 37.856-14.016 61.856v8.832h80.64v-8.832c0-15.168 3.52-28.416 10.496-41.024 6.304-11.36 15.424-22.08 28.064-31.584 33.632-26.496 53.952-43.52 60.288-49.856 16.832-20.192 25.92-46.08 25.92-77.632 0-38.496-14.016-68.8-42.048-90.88C598.784 298.72 561.6 288 516.064 288z"/>
</svg>
