<svg xmlns="http://www.w3.org/2000/svg" class="icon" viewBox="0 0 1024 1024" fill="currentColor" aria-hidden="true">
  <path d="M411.647 320.844V455.31l136.704-.124c1.802 0 3.355 0 4.97-.124a67.979 67.979 0 0064.003-67.047c0-37.034-30.82-67.109-68.787-67.109h-136.89zm-135.15 664.067c-74.69 0-135.273-59.03-135.273-131.98V601.457a130.49 130.49 0 010-28.086V188.925c0-72.887 60.584-131.98 135.274-131.98h272.101c187.035 0 339.273 148.509 339.273 331.07 0 173.613-138.94 318.705-316.282 330.325a344.616 344.616 0 01-22.99.807l-136.89.125V852.93c0 72.888-60.523 131.981-135.212 131.981zm272.04-942.569c195.05 0 353.875 154.972 353.875 345.673 0 181.318-144.968 332.748-329.952 344.865l-11.868.621-12.055.187-122.35.124V852.93c0 74.566-56.793 135.958-130.24 145.34l-9.694.933-9.818.31c-79.35 0-144.408-60.398-149.503-136.89l-.31-9.693.061-249.918a144.968 144.968 0 01-.808-15.41l.311-10.067.435-4.163V188.925c0-77.796 61.89-141.301 139.935-146.272l9.88-.31h272.101zm0 29.205H276.373c-63.629 0-115.7 47.908-120.299 108.617l-.31 8.7-.124 386.124c-.435 4.163-.622 8.326-.622 12.552v4.163l.746 9.755V852.93c0 64.81 53.935 117.44 120.671 117.44 63.692 0 115.701-47.97 120.3-108.678l.372-8.7v-148.26l151.43-.187c7.394 0 14.789-.248 22.059-.746 169.76-11.122 302.611-149.938 302.611-315.784 0-170.196-138.567-309.57-311.621-316.282l-13.049-.248zm0 234.757c45.92 0 83.389 36.537 83.389 81.711 0 43-34.176 78.666-77.672 81.525l-5.841.186-151.306.187v-163.61h151.43zm0 29.142l-122.35-.124v105.324l126.14-.187a53.439 53.439 0 0050.456-52.506 53.314 53.314 0 00-47.908-52.196l-6.338-.373zm0-161.06c120.672 0 218.601 95.567 218.601 213.629 0 112.718-89.479 205.676-203.75 213.195l-7.457.373-7.394.124-257.623.249.062 251.036a14.54 14.54 0 01-11.185 14.168l-3.356.373a14.54 14.54 0 01-14.167-11.185l-.435-3.418V591.703l-.373-.932-.373-3.356c0-1.118.125-2.237.373-3.293l.31-1.056.063-408.743h286.704zm-257.623 29.017v369.41l257.623-.249c4.35 0 8.637-.124 12.987-.372 99.11-6.525 176.471-86.993 176.471-184.177 0-98.302-78.977-178.833-178.708-184.239l-10.75-.31H290.914zm96.935-90.162c20.754 28.832 28.707 63.878 22.37 98.551a130.8 130.8 0 01-55.614 85.191c-61.082 41.757-145.651 27.216-188.464-32.374a128.501 128.501 0 01-22.37-98.613 130.738 130.738 0 0155.614-85.128c61.143-41.82 145.65-27.279 188.464 32.311zM753.716 984.85A136.082 136.082 0 01642.8 928.614L451.726 662.416c-42.875-59.653-28.024-141.985 33.12-183.804s145.464-27.34 188.34 32.312l191.136 266.198c42.875 59.652 28.024 141.985-33.12 183.804-23.612 16.156-50.704 23.923-77.486 23.923z"/>
</svg>
