<?xml version="1.0" standalone="no"?>
<!DOCTYPE svg PUBLIC "-//W3C//DTD SVG 1.1//EN" "http://www.w3.org/Graphics/SVG/1.1/DTD/svg11.dtd">
<svg class="icon" version="1.1" viewBox="0 0 1024 1024" fill="currentColor" aria-hidden="true">
  <path d="M411.64739318 320.84395805v134.46627934l136.70324149-0.12427567c1.80199728 0 3.3554432 0 4.97102696-0.12427567a67.97879372 67.97879372 0 0 0 64.00197215-67.04672616c0-37.03415088-30.82036717-67.108864-68.7865856-67.108864H411.64739318zM276.49759763 984.91102246c-74.68968012 0-135.27407123-59.03094518-135.27407123-131.98076587v-251.47182649a130.48945778 130.48945778 0 0 1 0-28.08630233V188.92533002c0-72.88768285 60.58439111-131.98076587 135.27407123-131.98076587h272.10158839c187.03488948 0 339.27259022 148.50943052 339.27259021 331.07039574 0 173.61311668-138.94020362 318.70496617-316.28159051 330.32474168a344.61644421 344.61644421 0 0 1-22.9909997 0.80779188l-136.889655 0.12427567v133.65848747c0 72.88768285-60.52225328 131.98076587-135.21193339 131.98076587zM548.53704818 42.34217245c195.05067045 0 353.87498192 154.97176557 353.87498192 345.67278744 0 181.31820848-144.96757381 332.74811733-329.95191467 344.86499555l-11.86832686 0.62137838-12.05474039 0.1864135-122.34940113 0.12427567v119.1182336c0 74.56540445-56.79398305 135.95758743-130.24090643 145.34040083l-9.69350257 0.93206756-9.81777826 0.31068919c-79.3500179 0-144.40833328-60.3979776-149.50363591-136.889655l-0.31068918-9.69350258 0.06213783-249.91838055a144.96757381 144.96757381 0 0 1-0.80779188-15.41018359l0.31068918-10.0663296 0.43496487-4.16323508V188.92533002c0-77.79657197 61.88928569-141.30144142 139.934409-146.27246838l9.87991609-0.31068919h272.10158839z m0 29.2047834h-272.16372623c-63.62914512 0-115.70065257 47.90827235-120.2988525 108.61693914l-0.31068918 8.69929719-0.12427568 386.12451934c-0.43496485 4.16323508-0.62137837 8.32647017-0.62137837 12.5518431v4.16323507l0.74565405 9.75564041v251.47182649c0 64.80976403 53.93564255 117.440512 120.67167952 117.440512 63.69128297 0 115.70065257-47.97041019 120.29885251-108.67907697l0.37282702-8.69929718v-148.26087918l151.42990886-0.18641351c7.39440261 0 14.78880522-0.24855135 22.05893214-0.74565405 169.76057078-11.12267283 302.61126637-149.93860077 302.61126638-315.78448781 0-170.19553565-138.56737659-309.57070412-311.62125275-316.28159052l-13.04894577-0.24855135z m0 234.75674833c45.91986157 0 83.3889773 36.53704818 83.3889773 81.71125571 0 42.99938323-34.17581037 78.66650169-77.6722963 81.52484219l-5.84095668 0.18641351-151.30563318 0.18641351V306.30370418h151.42990886z m0 29.14264557L426.18764705 335.32207408v105.32363377l126.13980918-0.1864135a53.43853985 53.43853985 0 0 0 50.45592368-52.5064723 53.31426418 53.31426418 0 0 0-47.90827236-52.19578311l-6.33805937-0.37282702zM548.53704818 174.38507615c120.67167952 0 218.6009107 95.56799337 218.6009107 213.62988374 0 112.71803638-89.47848533 205.67624059-203.74996765 213.19491887l-7.45654045 0.37282702-7.3944026 0.12427567-257.62347236 0.24855135 0.06213783 251.03686164a14.54025387 14.54025387 0 0 1-11.18481066 14.16742684l-3.3554432 0.37282702a14.54025387 14.54025387 0 0 1-14.16742684-11.18481066l-0.43496486-3.41758105v-261.2274669l-0.37282702-0.93206755-0.37282702-3.3554432c0-1.11848107 0.12427568-2.23696213 0.37282702-3.29330537l0.31068918-1.05634322 0.06213784-408.74269203h286.70398009z m-257.62347236 29.0183699v369.40944119l257.62347236-0.24855135c4.34964859 0 8.63715935-0.12427568 12.98680794-0.37282703 99.10985008-6.52447289 176.47145718-86.99297185 176.47145718-184.17654897 0-98.30205819-78.97719088-178.83269499-178.70841932-184.23868682l-10.7498458-0.31068918H290.91357582zM387.8486016 113.2414445c20.75403757 28.83195638 28.70768071 63.87769648 22.36962133 98.55060955a130.80014697 130.80014697 0 0 1-55.61336415 85.19097457c-61.08149381 41.75662649-145.65109002 27.21637262-188.46405973-32.3738131a128.50104699 128.50104699 0 0 1-22.36962133-98.61274737 130.73800912 130.73800912 0 0 1 55.61336415-85.12883673c61.14363165-41.81876432 145.65109002-27.27851045 188.46405973 32.31167525z m365.86758448 871.60744012a136.08186311 136.08186311 0 0 1-110.91603911-56.23474252L451.72629808 662.41564824c-42.87510755-59.65232355-28.0241645-141.98495763 33.11946714-183.80372195s145.4646765-27.3406483 188.33978406 32.31167526l191.13598672 266.19849387c42.87510755 59.65232355 28.0241645 141.98495763-33.11946715 183.80372195-23.61237808 16.15583763-50.70447502 23.92306725-77.48588277 23.92306725z"/>
</svg>
