<?xml version="1.0" standalone="no"?>
<!DOCTYPE svg PUBLIC "-//W3C//DTD SVG 1.1//EN" "http://www.w3.org/Graphics/SVG/1.1/DTD/svg11.dtd">
<svg class="icon" p-id="2576" t="1684316870705" version="1.1" viewBox="0 0 1024 1024" fill="currentColor" aria-hidden="true">
  <path d="M999.619048 24.380952H24.380952v975.238096h975.238096V24.380952zM409.404952 212.016762c0-22.430476 18.090667-41.350095 41.398858-41.350095 154.282667 0 279.259429 124.976762 279.259428 278.430476a41.398857 41.398857 0 0 1-82.748952 0 196.461714 196.461714 0 0 0-196.510476-196.510476 40.667429 40.667429 0 0 1-41.398858-40.569905z m402.529524 195.681524c22.430476 0 41.398857 18.090667 41.398857 41.398857 0 153.404952-124.976762 278.430476-279.259428 278.430476a41.398857 41.398857 0 0 1 0-82.797714 196.461714 196.461714 0 0 0 196.510476-196.510476c0-21.552762 18.968381-40.472381 41.350095-40.472381z m-196.510476 404.23619c0 22.430476-18.041905 41.398857-41.350095 41.398857-154.282667 0-279.259429-124.976762-279.259429-278.430476a41.398857 41.398857 0 0 1 82.748953 0 196.461714 196.461714 0 0 0 196.510476 196.510476c23.30819 0 41.398857 18.139429 41.398857 40.521143zM212.114286 616.350476A41.398857 41.398857 0 0 1 170.666667 574.902857c0-153.404952 124.976762-278.430476 279.259428-278.430476a41.398857 41.398857 0 0 1 0 82.797714 196.461714 196.461714 0 0 0-196.510476 196.510476c-0.877714 21.552762-18.968381 40.472381-41.350095 40.472381z" p-id="2577"/>
</svg>
