<?xml version="1.0" standalone="no"?>
<!DOCTYPE svg PUBLIC "-//W3C//DTD SVG 1.1//EN" "http://www.w3.org/Graphics/SVG/1.1/DTD/svg11.dtd">
<svg class="icon" version="1.1" viewBox="0 0 1024 1024" fill="currentColor" aria-hidden="true">
  <path d="M955.733333 905.6256l-197.666133-197.461333a388.1984 388.1984 0 0 0 90.692267-249.924267C848.759467 242.858667 674.030933 68.266667 458.513067 68.266667S68.266667 242.858667 68.266667 458.24c0 215.381333 174.728533 389.9392 390.2464 389.9392 94.788267 0 181.691733-33.792 249.309866-89.941333L905.557333 955.733333 955.733333 905.6256z m-177.937066-447.3856c0 176.196267-142.9504 319.044267-319.2832 319.044267-176.3328 0-319.2832-142.848-319.2832-319.044267 0-176.2304 142.9504-319.0784 319.2832-319.0784 176.3328 0 319.2832 142.848 319.2832 319.0784z"/>
</svg>
