<?xml version="1.0" standalone="no"?>
<!DOCTYPE svg PUBLIC "-//W3C//DTD SVG 1.1//EN" "http://www.w3.org/Graphics/SVG/1.1/DTD/svg11.dtd">
<svg class="icon" version="1.1" viewBox="0 0 1024 1024" fill="currentColor" aria-hidden="true">
  <path d="M512 801.416533l-0.238933 3.822934-0.341334 2.184533C503.569067 846.4384 420.352 887.466667 303.4112 887.466667c-119.0912 0-203.195733-42.564267-208.315733-82.2272l-0.273067-3.822934v-52.736c35.669333 36.693333 115.6096 62.293333 208.554667 62.293334 61.405867 0 117.077333-11.127467 158.1056-29.252267l8.362666-3.8912 9.659734-5.051733 7.543466-4.437334 7.304534-4.778666 5.973333-4.437334c2.321067-1.809067 4.5056-3.652267 6.5536-5.495466l5.12-4.949334v52.736zM589.1072 136.533333c187.630933 0 339.933867 152.302933 339.933867 339.933867s-152.302933 339.933867-339.968 339.933867c-16.7936 0-33.348267-1.2288-49.493334-3.584l0.8192-5.666134 0.273067-5.7344v-314.4704c-38.229333-58.026667-117.316267-87.005867-237.226667-87.005866-15.701333 0-31.1296 0.7168-46.08 2.116266C291.293867 250.1632 426.973867 136.533333 589.073067 136.533333zM512 705.809067c0 2.6624-0.375467 5.290667-1.092267 7.953066l-1.570133 4.676267-2.286933 4.642133-2.1504 3.515734-3.857067 5.085866-3.549867 3.925334-4.164266 3.9936-4.437334 3.754666-6.894933 5.12-4.266667 2.8672-5.563733 3.413334-10.376533 5.563733-12.288 5.632-10.308267 4.096-13.448533 4.573867c-33.4848 10.5472-75.195733 17.237333-122.368 17.237333-119.0912 0-203.195733-42.564267-208.315734-82.193067l-0.273066-3.857066v-52.701867c35.669333 36.693333 115.6096 62.2592 208.554666 62.2592 20.138667 0 39.662933-1.194667 58.231467-3.447467l17.169067-2.423466c17.5104-2.833067 34.065067-6.587733 49.322666-11.1616l15.189334-4.983467 8.8064-3.310933 9.284266-3.857067 9.4208-4.437333 8.874667-4.642134 3.584-2.048 7.509333-4.676266 6.621867-4.642134 3.140267-2.389333 6.3488-5.290667 5.12-4.949333v52.701867z m0-95.573334a31.402667 31.402667 0 0 1-1.365333 9.0112 38.468267 38.468267 0 0 1-1.8432 4.846934c-2.594133 5.7344-6.826667 11.4688-12.424534 17.066666-1.877333 1.877333-3.959467 3.754667-6.212266 5.597867l-6.007467 4.642133-8.157867 5.461334-4.9152 2.901333-8.430933 4.539733-8.021333 3.822934-16.725334 6.826666-12.0832 4.096-12.936533 3.754667-6.9632 1.774933-13.653333 3.072-15.086934 2.798934-11.332266 1.706666-13.550934 1.604267-23.04 1.809067c-8.430933 0.443733-17.066667 0.682667-25.873066 0.682666-119.0912 0-203.195733-42.530133-208.315734-82.193066l-0.273066-3.822934v-52.804266c35.669333 36.693333 115.6096 62.293333 208.554666 62.293333 88.814933 0 165.6832-23.278933 203.502934-57.344l5.12-4.949333v52.804266z m101.444267-336.349866h-48.810667v210.602666l148.992 148.992 34.269867-34.6112-134.4512-134.417066V273.885867z m-298.666667 326.621866l-11.400533 0.136534c-5.905067 0-11.741867-0.1024-17.442134-0.341334l-13.789866-0.682666c-105.984-6.826667-177.3568-47.854933-177.3568-84.992 0-33.109333 56.558933-69.2224 143.701333-81.6128l13.585067-1.706667 13.994666-1.297067 16.1792-1.024 9.045334-0.273066c3.9936-0.1024 8.021333-0.136533 12.0832-0.136534 122.948267 0 208.622933 45.329067 208.622933 86.016 0 39.424-80.418133 83.217067-197.2224 85.9136z"/>
</svg>
