<?xml version="1.0" standalone="no"?>
<!DOCTYPE svg PUBLIC "-//W3C//DTD SVG 1.1//EN" "http://www.w3.org/Graphics/SVG/1.1/DTD/svg11.dtd">
<svg class="icon" version="1.1" viewBox="0 0 1121 1024" fill="currentColor" aria-hidden="true">
  <path d="M77.71428594 613.30285719h960a45.71428594 45.71428594 0 0 1 45.71428594 45.71428593V946.28571406a45.71428594 45.71428594 0 0 1-45.71428594 45.71428594H77.71428594a45.71428594 45.71428594 0 0 1-45.71428594-45.71428594v-287.26857093a45.71428594 45.71428594 0 0 1 45.71428594-45.71428594zM32 77.71428594v120.91428562a45.71428594 45.71428594 0 0 0 45.71428594 45.71428594h960a45.71428594 45.71428594 0 0 0 45.71428594-45.71428594V77.71428594a45.71428594 45.71428594 0 0 0-45.71428594-45.71428594H77.71428594a45.71428594 45.71428594 0 0 0-45.71428594 45.71428594z m189.71428594 119.63428593c-33.64571437 0-60.93714281-26.51428594-60.93714282-59.20000031 0-32.64 27.29142844-59.15428594 60.93714282-59.15428594s60.93714281 26.51428594 60.93714281 59.15428594c0 32.68571437-27.29142844 59.20000031-60.93714281 59.20000031zM77.71428594 533.48571406h960a45.71428594 45.71428594 0 0 0 45.71428594-45.71428593V366.8571425a45.71428594 45.71428594 0 0 0-45.71428594-45.714285H77.71428594a45.71428594 45.71428594 0 0 0-45.71428594 45.714285V487.77142812a45.71428594 45.71428594 0 0 0 45.71428594 45.71428594z m83.06285718-102.12571406c0-32.68571437 27.29142844-59.20000031 60.93714282-59.20000031s60.93714281 26.51428594 60.93714281 59.20000031c0 32.64-27.29142844 59.15428594-60.93714281 59.15428594s-60.93714281-26.51428594-60.93714282-59.15428594z"/>
</svg>
