<?xml version="1.0" standalone="no"?>
<!DOCTYPE svg PUBLIC "-//W3C//DTD SVG 1.1//EN" "http://www.w3.org/Graphics/SVG/1.1/DTD/svg11.dtd">
<svg class="icon" version="1.1" viewBox="0 0 1024 1024" fill="currentColor" aria-hidden="true">
  <path d="M32 512a480 480 0 0 1 960 0A480 480 0 0 1 32 512z m182.45333344-86.4c0 0.26666625 0 0.69333375 0.10666687 1.06666688l0.10666594 1.17333281 0.10666687 0.85333406 0.21333375 1.27999969 0.10666688 0.74666625 0.31999969 1.28000062 0.10666687 0.63999938 0.31999969 1.22666719c0.10666688 0.21333375 0.10666688 0.53333344 0.16000031 0.69333281 0.10666688 0.42666656 0.21333375 0.85333313 0.42666656 1.12000031l0.31999969 0.85333313 0.37333313 1.06666687 0.32000062 0.85333313 0.42666656 0.96 0.37333313 1.06666687c0.10666688 0.10666688 0.21333375 0.53333344 0.42666656 0.64000031l0.53333344 1.06666594a2.13333375 2.13333375 0 0 0 0.42666656 0.64000031l0.58666688 1.17333375a2.13333375 2.13333375 0 0 0 0.37333312 0.53333344l0.74666719 1.17333281 0.42666656 0.64000032 0.79999969 1.06666687 0.53333344 0.69333281 0.69333281 0.85333313 0.74666719 0.85333406 0.53333343 0.74666625 1.49333344 1.49333344 1.54666594 1.44 0.69333375 0.64000031 0.79999969 0.69333281c0.31999969 0.31999969 0.64000031 0.53333344 0.96 0.69333375l0.58666687 0.53333344 1.12000031 0.85333313 0.63999938 0.37333312c0.42666656 0.16000031 0.69333375 0.53333344 1.06666687 0.69333375 0.21333375 0.10666688 0.42666656 0.21333375 0.64000032 0.42666656l1.06666687 0.63999938c0.26666625 0.10666688 0.48 0.21333375 0.69333281 0.42666656l1.12000032 0.53333344c0.21333375 0 0.53333344 0.10666688 0.69333281 0.32000062 0.31999969 0.21333375 0.74666625 0.31999969 1.06666687 0.42666657l0.85333313 0.42666656 0.96 0.31999969c0.31999969 0.10666688 0.74666625 0.31999969 1.06666687 0.37333312l0.74666719 0.32000063 1.17333281 0.37333312c0.21333375 0.10666688 0.53333344 0.10666688 0.69333375 0.21333375l1.22666625 0.31999969 0.69333375 0.21333281 1.33333313 0.32000063 0.69333375 0.10666687a5.97333375 5.97333375 0 0 0 1.38666656 0.21333281l0.74666625 0.05333344a4.96000031 4.96000031 0 0 0 1.27999969 0.10666688l1.06666687 0.10666687 0.85333313 0.10666594 2.13333375 0.10666687h509.17333312a41.92000031 41.92000031 0 0 0 0-83.78666625H357.33333312l26.50666688-26.66666718A41.86666687 41.86666687 0 1 0 324.69333313 294.93333312L226.66666625 392.79999969l-1.44 1.60000031-0.58666594 0.64000031-0.74666718 0.85333313a5.59999969 5.59999969 0 0 0-0.74666625 0.90666656l-0.53333344 0.64000031-0.74666719 1.06666594-0.42666656 0.64000031-0.74666625 1.17333375c-0.10666688 0.16000031-0.21333375 0.37333313-0.42666656 0.53333344l-0.53333344 1.17333281a2.13333375 2.13333375 0 0 1-0.42666656 0.64000031c-0.21333375 0.37333313-0.42666656 0.64000031-0.53333344 1.06666688-0.10666688 0.21333375-0.21333375 0.53333344-0.42666656 0.74666625-0.21333375 0.31999969-0.26666625 0.69333375-0.37333313 1.06666687l-0.4266675 0.85333313-0.31999969 0.90666656-0.37333312 1.06666688-0.31999969 0.79999968-0.4266675 1.12000032c-0.10666688 0.21333375-0.10666688 0.53333344-0.15999937 0.74666625l-0.32000063 1.17333375c-0.10666688 0.21333375-0.10666688 0.42666656-0.10666594 0.64000031l-0.32000062 1.33333312-0.10666594 0.69333282a5.92000031 5.92000031 0 0 0-0.21333375 1.33333406l-0.10666687 0.85333312c-0.10666688 0.37333313-0.10666688 0.79999969-0.10666688 1.17333282l-0.10666594 1.06666687-0.10666687 1.06666688-0.10666688 2.02666687c0 0.64000031 0 1.38666656 0.10666688 2.02666594-0.10666688 0.53333344 0 0.79999969 0 1.06666687v0.16000032z m585.65333344 202.29333375a5.59999969 5.59999969 0 0 0 0.69333281-0.9066675l0.53333344-0.63999937 0.80000062-1.06666688 0.42666656-0.64000031c0.16000031-0.42666656 0.53333344-0.74666625 0.69333282-1.11999938a2.13333375 2.13333375 0 0 1 0.42666656-0.58666687l0.58666687-1.17333375a2.13333375 2.13333375 0 0 1 0.42666657-0.63999938l0.53333343-1.06666687a1.60000031 1.60000031 0 0 1 0.37333313-0.74666719c0.21333375-0.31999969 0.31999969-0.69333375 0.42666656-1.06666594l0.4266675-0.85333406 0.31999969-0.90666656 0.31999969-1.06666594 0.32000062-0.80000062 0.42666656-1.06666688 0.21333282-0.79999969 0.32000062-1.17333281c0.10666688-0.21333375 0.10666688-0.42666656 0.10666594-0.64000031l0.32000062-1.33333313 0.10666594-0.69333375a5.97333375 5.97333375 0 0 0 0.21333375-1.33333312v-0.85333313c0.16000031-0.37333313 0.16000031-0.79999969 0.16000031-1.17333375l0.10666594-1.06666687 0.10666688-1.06666594 0.10666687-2.02666687c0-0.64000031 0-1.38666656-0.10666687-2.02666688l-0.10666688-1.06666687c0-0.21333375 0-0.64000031-0.10666594-0.96l-0.10666687-1.22666625-0.05333344-0.80000063-0.21333375-1.33333312-0.10666594-0.74666625-0.32000062-1.28000063c-0.10666688-0.21333375-0.10666688-0.42666656-0.10666594-0.63999937l-0.32000062-1.22666719-0.21333282-0.69333281a3.67999969 3.67999969 0 0 0-0.42666656-1.12000032l-0.32000062-0.85333312-0.31999969-1.06666688-0.31999969-0.85333312-0.4266675-0.96-0.42666656-1.06666688c-0.10666688-0.10666688-0.21333375-0.53333344-0.42666656-0.64000031l-0.53333344-1.06666594a2.13333375 2.13333375 0 0 0-0.37333313-0.64000031l-0.58666687-1.17333375-0.42666656-0.5333325c-0.21333375-0.48-0.53333344-0.79999969-0.69333282-1.17333375l-0.42666656-0.64000031-0.80000062-1.06666594-0.53333344-0.69333375-0.69333281-0.85333312-0.74666719-0.85333313-0.63999938-0.74666719c-0.53333344-0.53333344-0.85333313-1.06666687-1.38666656-1.49333343l-1.60000031-1.44-0.64000031-0.58666688-0.85333313-0.74666625a5.59999969 5.59999969 0 0 0-0.90666656-0.69333375l-0.58666688-0.5333325-1.12000031-0.85333406-0.63999937-0.37333313c-0.42666656-0.16000031-0.74666625-0.53333344-1.12000032-0.69333281a2.13333375 2.13333375 0 0 1-0.58666687-0.4266675l-1.17333281-0.63999937c-0.21333375-0.10666688-0.42666656-0.21333375-0.64000032-0.42666657l-1.06666687-0.53333343a1.60000031 1.60000031 0 0 1-0.74666625-0.32000063c-0.31999969-0.21333375-0.69333375-0.31999969-1.06666688-0.42666656l-0.85333312-0.42666656-0.90666656-0.31999969c-0.31999969-0.10666688-0.74666625-0.31999969-1.06666688-0.37333313l-0.79999969-0.32000062-1.06666687-0.37333313-0.79999969-0.21333281-1.17333375-0.32000062-0.74666625-0.21333282-1.28000062-0.32000062-0.74666625-0.10666594a5.97333375 5.97333375 0 0 0-1.33333313-0.21333375l-0.80000062-0.05333344c-0.42666656-0.10666688-0.85333313-0.10666688-1.22666625-0.10666687l-1.06666688-0.10666594-0.85333312-0.10666687-2.13333375-0.10666688h-509.33333344a41.92000031 41.92000031 0 1 0 0 83.78666625h408.16000031l-26.56000031 26.66666719a41.86666687 41.86666687 0 1 0 59.14666687 59.09333344l98.08000032-97.97333344 1.38666656-1.60000031 0.64000031-0.63999938 0.85333313-0.96z"/>
</svg>
