<?xml version="1.0" standalone="no"?>
<!DOCTYPE svg PUBLIC "-//W3C//DTD SVG 1.1//EN" "http://www.w3.org/Graphics/SVG/1.1/DTD/svg11.dtd">
<svg class="icon" version="1.1" viewBox="0 0 1024 1024" fill="currentColor" aria-hidden="true">
  <path d="M439.13237238 840.91628445c36.37134768-36.70274867 72.74269415-73.3226477 109.69399539-110.35679857h0.08284965c3.60399455 2.56836434 7.08371342 5.26100313 10.52200746 8.07791881l0.8285049 0.66280319c67.9373689 51.94723177 135.95758743 103.89446352 203.93638116 155.59314394 40.59672061 31.0274937 75.51818501 17.68857054 86.04019128-33.554432 37.98693145-184.17654898 75.76673636-368.47737363 113.50511525-552.69534743l19.34558034-94.24238697c1.40845724-7.04228861 2.89976532-14.00172635 4.39107341-21.00258893 4.30822378-20.33978573 8.69929718-40.72099628 10.68770797-61.26790732 4.22537292-43.49648592-25.60078885-65.24472889-64.41622399-49.71026962a348996.95459199 348996.95459199 0 0 0-319.13993102 127.25829024c-97.18357712 38.81543513-194.40857907 77.63087148-291.63358223 116.32203094l-51.90580574 20.67118793c-62.96634194 25.02083531-125.93268266 50.00024579-188.65047324 75.55960984a129.03957451 129.03957451 0 0 0-38.15263194 24.52373261c-12.09616521 11.22623549-10.23203009 26.42929376 3.31401716 35.74996932 8.94784853 5.8823815 18.64135111 10.48058144 28.87338242 13.67032415 64.91332669 21.41684076 130.48945778 42.50228053 195.73418667 63.04919157 8.40932101 2.73406483 12.30329173 6.79373725 15.07878138 15.53445926 15.49303444 49.8345453 31.15176938 99.62766578 46.81050431 149.37936024l36.78559952 117.35766114c3.89397072 12.13759124 10.77055883 17.68857054 23.15670021 18.35137494 18.35137494 0.95278058 32.47737575-6.2137837 45.11206968-18.93132728z m-42.41942967-45.02922004a8.32647017 8.32647017 0 0 0-1.24275675 0.3314022v-0.08285086c-8.90642371-28.08630235-17.81284622-56.33830517-26.67784511-84.59030801l-15.74158578-49.87597133-5.88238151-19.09702778c-8.49217066-27.50634879-16.98434253-54.88842311-26.22216722-82.14622056-3.31401838-9.94205392-1.86413511-14.62310471 6.87658689-20.21551005 89.93416321-58.61669334 180.07545173-117.23338547 270.17531544-175.76722797l189.31327764-123.157193 0.08284964-0.04142603c7.16656428-4.68105079 14.70595436-9.61065172 22.78387439-11.84761387 4.01824639-1.03563022 8.45074583-0.12427568 12.84181926 0.8285049 2.23696213 0.41425184 4.47392427 0.86992972 6.66946158 1.11848106-0.95278058 1.73985943-1.78128426 3.68684541-2.60978916 5.59240534a32.60165142 32.60165142 0 0 1-6.3794854 10.81198365 62086.13835662 62086.13835662 0 0 1-208.12032805 194.11860291c-62.46923924 58.40956682-125.35273031 117.10910979-188.19479658 175.14584958a37.44840272 37.44840272 0 0 0-12.34471656 26.09789156c-3.72827022 46.1476999-7.95364315 92.62680201-12.22044087 138.77450312l-0.74565405 7.87079228c-0.08285085 0.8285049-0.28997617 1.65700859-0.4971027 2.56836434-0.24855135 1.03563022-0.4971027 2.07126164-0.62137837 3.23116752-0.45567788 0.16570049-0.8285049 0.24855135-1.24275673 0.331401z"/>
</svg>
