<?xml version="1.0" standalone="no"?>
<!DOCTYPE svg PUBLIC "-//W3C//DTD SVG 1.1//EN" "http://www.w3.org/Graphics/SVG/1.1/DTD/svg11.dtd">
<svg class="icon" version="1.1" viewBox="0 0 1489 1024" fill="currentColor" aria-hidden="true">
  <path d="M472.88168146 210.69358486a60.28429202 60.28429202 0 1 0 0-120.49188765H169.15929202a60.28429202 60.28429202 0 0 0 0 120.49188765h303.72238943z m483.42480166 475.06476683a61.35805866 61.35805866 0 0 0 84.13723801-21.47532029l286.08194668-481.35396807A61.35805866 61.35805866 0 0 0 1273.91113333 90.2016972H701.5938439a61.35805866 61.35805866 0 0 0-52.76793055 92.72736613l286.08194752 481.43066528a61.35805866 61.35805866 0 0 0 21.47532028 21.39862308z m-483.42480166-113.51240827a60.28429202 60.28429202 0 1 0 0-120.41518964H169.15929202a60.28429202 60.28429202 0 0 0 0 120.41518964h303.72238943zM1260.7958479 933.875a60.28429202 60.28429202 0 0 0 0-120.49188684H169.15929202a60.28429202 60.28429202 0 0 0 0 120.49188684h1091.63655588z"/>
</svg>
