<?xml version="1.0" standalone="no"?>
<!DOCTYPE svg PUBLIC "-//W3C//DTD SVG 1.1//EN" "http://www.w3.org/Graphics/SVG/1.1/DTD/svg11.dtd">
<svg class="icon" version="1.1" viewBox="0 0 1024 1024" fill="currentColor" aria-hidden="true">
  <path d="M167.90000029 62A105.90000029 105.90000029 0 0 0 62 167.90000029v688.19999942A105.90000029 105.90000029 0 0 0 167.90000029 962h688.19999942A105.8625 105.8625 0 0 0 962 856.09999971V167.90000029A105.90000029 105.90000029 0 0 0 856.09999971 62zM576.50000029 586.025a42.11250029 42.11250029 0 0 1 56.5875-2.73750029l2.99999971 2.73750029 143.06249971 143.1V662.37499971a42.11250029 42.11250029 0 0 1 84.07500029-3.86249942l0.15000029 3.86249942V830.75000029c0 21.97500029-16.80000029 40.01249971-38.25 41.92499971l-3.86250029 0.18749971h-168.45000029a42.11250029 42.11250029 0 0 1-3.825-84.07499942l3.825-0.15000029h66.75000029l-143.06249971-143.1a42.11250029 42.11250029 0 0 1 0-59.55000029zM192.87500029 160.17499971H361.25a42.11250029 42.11250029 0 0 1 3.825 84.07500029l-3.825 0.15000029H294.49999971l143.1 143.1a42.11250029 42.11250029 0 0 1-56.5875 62.28749971l-2.99999971-2.73750029-143.06249971-143.06249971v66.75000029a42.11250029 42.11250029 0 0 1-84.07500029 3.86249942l-0.15000029-3.825V202.24999971c0-21.9375 16.80000029-39.97500029 38.25-41.92499971z"/>
</svg>
