<svg xmlns="http://www.w3.org/2000/svg" class="icon" viewBox="0 0 1024 1024" fill="currentColor" aria-hidden="true">
  <path d="M520.7 55.702c17.812 0 35.128 2.195 51.408 6.504 16.28 4.39 31.483 9.776 45.775 16.653 14.126 6.876 26.926 14.333 37.821 22.66 11.226 8.326 20.05 16.86 26.968 25.558 15.327 19.76 26.968 41.426 34.714 65.204 7.788 23.736 13.256 45.982 16.115 67.026 3.728 24.482 5.26 49.296 4.68 74.068a23.488 23.488 0 0110.15 11.185c2.32 4.391 4.515 9.818 5.965 16.694 1.45 6.877 1.657 15.079.373 25.021-1.243 10.73-4.225 21.127-8.7 30.945-4.142 7.788-8.492 13.753-13.38 18.103a44.78 44.78 0 01-17.564 10.149 331.899 331.899 0 01-8.285 28.625 265.121 265.121 0 01-10.522 23.53c-4.143 7.828-8.492 13.752-13.38 18.102l-7.623 6.545-8.119 6.007a90.404 90.404 0 00-13.049 10.48 44.242 44.242 0 00-9.196 13.422 78.087 78.087 0 00-5.634 19.014c-1.781 9.197-2.32 18.642-1.781 28.252.538 9.404 3.065 19.18 7.415 28.584 4.35 9.445 11.392 18.641 21.292 27.382 9.86 8.7 23.198 16.28 39.851 23.198 15.328 6.13 32.353 11.599 50.456 16.073 18.269 4.722 91.55 36.247 108.41 42.75 16.819 6.546 31.98 14.665 45.236 24.442 12.842 10.894 22.204 23.778 27.838 39.892 2.279 6.918 4.184 15.327 5.593 25.27l1.242 10.397c1.45 14.5 2.196 2.9 2.196 17.399s-1.077 28.21-3.024 41.3c-2.196 13.008-5.468 22.785-9.61 29.496-2.57 3.604-9.156 7.373-19.678 11.433l-11.06 3.894c-29.288 8.948-174.525 46.81-373.656 46.81-194.077 0-361.228-31.483-387.823-37.49-26.636-5.965-42.544-11.06-48.136-15.244-6.048-4.432-10.646-16.446-13.877-36.288l-1.326-8.99c-3.273-25.31-1.988-31.69 4.184-71.168 3.77-22.826 13.049-40.183 27.672-51.782a171.224 171.224 0 0152.279-27.755l98.592-33.306c11.93-3.935 22.41-7.29 29.66-9.486l6.131-1.74a186.248 186.248 0 0055.924-24.11 147.866 147.866 0 0030.033-23.156 66.28 66.28 0 0014.83-22.287c2.693-7.415 4.143-15.037 4.143-23.198 0-7.954-.331-16.653-.87-26.098-1.325-14.83-5.965-26.222-14.333-34.176-8.285-7.995-17.523-16.28-28.21-24.979a54.971 54.971 0 01-13.008-18.144 295.735 295.735 0 01-10.15-23.488l-9.196-28.708a39.851 39.851 0 01-13.049-6.504 79.164 79.164 0 01-12.096-13.007c-4.35-5.634-7.953-13.63-11.226-24.11-3.024-10.356-4.142-19.967-3.024-28.252.829-8.368 2.486-15.534 5.012-21.748 2.362-6.877 6.131-13.215 11.227-19.553a440.116 440.116 0 013.81-70.464 390.391 390.391 0 0113.381-63.05 206.795 206.795 0 0128.21-60.107c11.766-16.653 24.814-30.406 39.23-41.301a202.57 202.57 0 0143.953-25.518c14.498-5.965 29.494-10.356 44.905-13.05a284.591 284.591 0 0143.91-3.81z"/>
</svg>
