<?xml version="1.0" standalone="no"?>
<!DOCTYPE svg PUBLIC "-//W3C//DTD SVG 1.1//EN" "http://www.w3.org/Graphics/SVG/1.1/DTD/svg11.dtd">
<svg class="icon" p-id="5145" t="1686555423863" version="1.1" viewBox="0 0 1144 1024" fill="currentColor" aria-hidden="true">
  <path d="M871.7176475 560c128.75294156 0 233.22352969 107.46352969 233.22352875 240V992H311.92470594v-192c0-132.53647031 104.41411781-240 233.22352968-240h326.56941188zM451.85882375 512c-128.80941187 0-233.22352969 107.46352969-233.22352969 240v192H32v-192C32 619.46352969 136.47058813 512 265.22352969 512h186.63529406zM708.40470594 80c115.93411781 0 209.9576475 96.73411781 209.95764656 216S824.2823525 512 708.40470594 512 498.50352969 415.26588219 498.50352969 296 592.47058813 80 708.40470594 80zM428.53647031 32c33.54352969 0 65.22352969 8.07529406 93.34588219 22.47529406a216.56470594 216.56470594 0 0 0-116.66823469 193.52470594c0 84.81882375 47.43529406 158.17411781 116.61176438 193.52470594a204.08470594 204.08470594 0 0 1-93.28941188 22.47529406c-115.93411781 0-209.9576475-96.73411781-209.95764656-216S312.65882375 32 428.53647031 32z" p-id="5146"/>
</svg>
