<svg xmlns="http://www.w3.org/2000/svg" class="icon" viewBox="0 0 1024 1024" fill="currentColor" aria-hidden="true">
  <path d="M924.254 37.13a45.247 45.247 0 0145.247 45.246V937.05a45.247 45.247 0 01-39.566 44.896l-5.681.352H109.801a45.247 45.247 0 01-44.896-39.567l-.351-5.68V82.375A45.247 45.247 0 01109.8 37.13h814.453zm0 442.418H109.801v457.501h814.453V479.548zM654.781 740.123v58.67H488.22v87.982l-120.961-124.23a13.172 13.172 0 019.451-22.422h278.02zM535.78 534.85l120.961 124.23a13.172 13.172 0 01-9.451 22.422H369.27v-58.67h166.51V534.85zm74.457-350.516c-38.26 0-66.111 19.356-66.111 50.074 0 23.78 16.088 39.717 45.549 44.594l21.216 3.569c17.244 2.966 23.126 6.033 23.126 13.071 0 7.34-8.647 12.72-22.774 12.72-12.67 0-23.83-5.681-25.138-14.328h-44.644c.15 30.315 25.841 47.359 68.877 47.359 42.733 0 70.234-19.758 70.234-50.778 0-24.635-14.58-38.661-45.75-43.79l-22.02-3.569c-15.234-2.514-21.82-6.335-21.82-13.574 0-7.592 7.792-12.418 20.11-12.418 12.72 0 22.623 5.53 22.975 15.032h43.036c-.201-29.46-24.132-47.962-66.866-47.962zm-422.309 2.614h-48.767l41.377 151.83h44.493l23.93-86.925h.906l23.93 86.925h44.494l41.376-151.83H310.9l-18.45 95.975h-.855l-23.93-96.025h-36.5l-23.931 96.025h-.905l-18.451-96.025zm291.092 0h-59.174l-52.386 151.83h48.063l8.345-30.165h48.968l8.345 30.165h50.275l-52.386-151.83zm273.847 0h-54.498v151.83h41.175v-87.98h.855l36.198 86.17h25.238l36.198-86.17h.854v87.98h41.175v-151.83h-54.548l-35.796 88.585h-.905l-35.946-88.585zM448.804 221.99l15.435 55.151h-31.824L447.9 221.99h.904z"/>
</svg>
