<?xml version="1.0" standalone="no"?>
<!DOCTYPE svg PUBLIC "-//W3C//DTD SVG 1.1//EN" "http://www.w3.org/Graphics/SVG/1.1/DTD/svg11.dtd">
<svg class="icon" version="1.1" viewBox="0 0 1024 1024" fill="currentColor" aria-hidden="true">
  <path d="M793.6 136.533333a94.139733 94.139733 0 0 1 93.5936 86.869334L887.466667 230.4v563.2a94.208 94.208 0 0 1-86.903467 93.5936L793.6 887.466667H230.4a94.139733 94.139733 0 0 1-93.5936-86.903467L136.533333 793.6V230.4a94.208 94.208 0 0 1 86.869334-93.5936L230.4 136.533333h563.2z m0 46.933334H230.4A47.104 47.104 0 0 0 183.773867 224.938667l-0.3072 5.461333v563.2a47.104 47.104 0 0 0 41.472 46.592l5.461333 0.341333h563.2a47.104 47.104 0 0 0 46.592-41.472l0.341333-5.461333V230.4a47.104 47.104 0 0 0-41.472-46.626133l-5.461333-0.3072z m-328.533333 352.017066a21.2992 21.2992 0 0 1 13.653333 4.5056l2.730667 2.491734 2.56 2.730666c2.286933 2.901333 3.754667 6.3488 4.334933 10.001067l0.2048 3.720533v211.182934c0 14.062933-9.4208 23.415467-23.483733 23.415466-12.4928 0-21.2992-7.406933-23.108267-18.909866l-0.341333-4.5056v-154.9312l-159.573334 159.573333-32.8704-32.8704 159.573334-159.470933H253.8496c-14.062933 0-23.4496-9.4208-23.4496-23.483734 0-12.526933 7.406933-21.2992 18.978133-23.108266l4.5056-0.341334h211.182934z m93.866666-305.083733c12.526933 0 21.2992 7.406933 23.108267 18.944l0.341333 4.5056v154.897067L741.9904 249.173333l32.836267 32.836267-159.573334 159.607467h154.862934a23.415467 23.415467 0 0 1 23.108266 19.217066l0.375467 4.232534-0.341333 4.5056a21.435733 21.435733 0 0 1-18.6368 18.602666l-4.5056 0.341334h-211.182934a21.333333 21.333333 0 0 1-13.653333-4.5056l-2.730667-2.491734-2.56-2.730666a21.2992 21.2992 0 0 1-4.334933-10.001067l-0.2048-3.720533V253.8496c0-14.062933 9.4208-23.4496 23.483733-23.4496z"/>
</svg>
